<?xml version="1.0" standalone="no"?>
<!DOCTYPE svg PUBLIC "-//W3C//DTD SVG 20010904//EN"
 "http://www.w3.org/TR/2001/REC-SVG-20010904/DTD/svg10.dtd">
<svg version="1.0" xmlns="http://www.w3.org/2000/svg"
 width="1080.000000pt" height="468.000000pt" viewBox="0 0 1080.000000 468.000000"
 preserveAspectRatio="xMidYMid meet">

<g transform="translate(0.000000,468.000000) scale(0.100000,-0.100000)"
fill="#000000" stroke="none">
<path d="M5340 4366 c-32 -7 -54 -17 -52 -24 1 -7 -5 -12 -13 -12 -9 0 -25 -9
-37 -20 -12 -11 -16 -20 -10 -20 7 0 -5 -23 -27 -50 -53 -67 -65 -138 -46
-277 9 -74 1 -79 -59 -33 l-40 30 29 0 c23 0 26 3 17 12 -11 11 -93 21 -142
18 -85 -5 -159 -16 -190 -28 -37 -15 -94 -79 -133 -150 l-34 -63 -16 67 c-23
92 -63 177 -100 211 -27 23 -28 24 -11 3 31 -36 51 -80 58 -125 l6 -40 -17 45
c-10 25 -23 54 -30 66 -19 34 -143 112 -197 124 -43 9 -54 8 -101 -14 -55 -25
-128 -85 -147 -120 -6 -12 -17 -41 -25 -66 l-13 -45 4 50 4 50 -21 -45 -21
-45 -7 90 c-9 114 -29 165 -87 215 -38 34 -128 75 -140 65 -2 -2 1 -13 7 -24
7 -11 12 -38 13 -58 1 -40 14 -55 63 -77 45 -20 62 -43 47 -67 -11 -17 -9 -21
12 -31 24 -10 50 -60 39 -72 -4 -3 -13 0 -21 6 -17 15 -127 17 -140 3 -13 -14
-2 -85 13 -85 7 0 18 -7 25 -15 13 -16 55 -21 45 -5 -3 5 9 13 27 18 29 7 33
12 30 36 -3 20 0 27 10 24 9 -3 13 -25 15 -69 2 -84 3 -88 14 -60 14 34 20 21
9 -19 -7 -23 -6 -38 1 -47 9 -10 5 -13 -17 -13 -25 0 -32 -7 -46 -43 -31 -74
-17 -145 34 -181 30 -21 41 -20 28 3 -12 24 -13 161 -1 180 6 9 12 -18 17 -80
4 -52 7 -99 6 -104 -1 -6 28 -18 65 -28 53 -14 68 -15 75 -5 12 20 143 -51
143 -77 0 -33 28 -63 57 -62 27 2 27 12 1 53 -13 20 -11 23 41 53 79 44 86 42
86 -23 0 -47 4 -59 30 -88 19 -20 29 -40 26 -51 -3 -13 3 -19 22 -23 27 -6 69
-50 58 -61 -3 -3 -17 2 -32 12 l-27 18 21 -31 c27 -37 27 -42 2 -42 -21 0 -23
-4 -12 -32 6 -15 15 -13 82 20 l75 37 13 55 c7 30 15 60 17 67 2 7 32 -17 66
-53 35 -35 73 -67 86 -70 24 -6 25 -21 6 -99 -3 -15 5 -10 31 17 20 21 36 47
36 58 0 11 6 20 14 20 19 0 32 -20 18 -29 -15 -9 -2 -27 26 -33 28 -8 28 1 -3
47 -25 36 -25 38 -8 58 18 19 18 20 -3 7 -19 -12 -25 -10 -49 8 -15 12 -34 22
-42 22 -23 0 -9 24 18 30 15 4 25 14 27 28 3 18 10 22 38 22 32 0 34 -2 35
-37 1 -21 0 -45 -1 -53 -1 -9 10 -4 29 14 32 31 40 43 19 30 -7 -4 -2 9 10 30
29 49 21 79 -24 95 -38 14 -56 8 -52 -17 3 -22 -10 -42 -28 -42 -19 0 -18 26
3 34 30 12 -2 27 -61 29 -50 1 -57 3 -53 19 6 20 -9 25 -15 6 -3 -7 -26 -10
-65 -9 -61 2 -61 1 -68 -28 -4 -17 -3 -36 1 -42 4 -7 2 -10 -5 -8 -7 3 -27 32
-46 66 -29 50 -32 62 -20 67 14 5 21 -16 16 -46 0 -5 7 -8 17 -8 15 0 17 8 14
69 -3 61 -1 71 21 95 35 37 50 32 26 -9 -23 -38 -19 -56 11 -48 14 4 20 0 20
-11 0 -9 12 -21 26 -26 45 -17 82 -12 115 18 l31 28 28 -28 c29 -28 82 -39 95
-18 3 6 1 10 -5 10 -6 0 -8 5 -5 10 3 6 15 10 26 10 21 0 25 20 7 38 -9 9 -9
12 0 12 24 0 11 17 -20 27 l-33 10 28 8 c47 13 86 -40 89 -120 1 -25 5 -45 8
-45 9 0 46 42 59 66 6 12 9 41 6 64 -3 35 -2 40 11 30 12 -11 13 -7 7 21 -5
19 -8 70 -8 114 0 44 -4 83 -10 87 -5 4 -6 10 -2 14 9 10 20 -2 22 -24 1 -9 8
-30 16 -47 9 -16 14 -38 12 -47 -3 -13 2 -18 16 -18 l21 0 -22 53 c-12 28 -26
86 -31 127 -8 72 -8 77 18 123 15 27 39 54 54 60 27 12 31 15 70 47 24 20 47
27 37 12 -6 -9 86 -8 102 2 7 4 12 2 12 -4 0 -7 6 -10 13 -7 24 9 55 -12 77
-55 51 -96 52 -100 47 -142 -3 -23 -2 -48 3 -56 7 -10 10 -11 10 -2 0 6 9 12
20 12 11 0 20 5 20 11 0 5 4 8 9 4 18 -10 21 30 12 150 -11 145 -44 253 -86
275 -21 11 -81 52 -102 70 -6 5 -30 11 -52 12 -23 2 -41 6 -41 9 0 10 -73 7
-130 -5z m-968 -413 c18 -9 31 -26 38 -51 5 -22 20 -47 31 -58 32 -28 59 -93
59 -144 0 -59 -23 -152 -45 -187 l-19 -28 -13 33 c-15 38 -27 44 -13 6 19 -48
-26 -93 -75 -74 -14 5 -39 10 -54 10 -33 0 -87 38 -74 51 6 6 22 3 40 -6 40
-20 83 -11 83 17 0 15 -5 18 -20 13 -11 -3 -27 -2 -36 3 -14 8 -12 10 12 17
16 4 53 9 83 10 34 2 59 9 70 20 15 15 13 19 -23 51 -29 25 -42 31 -47 22 -5
-7 -2 -23 6 -35 21 -31 19 -33 -19 -33 -43 0 -54 15 -24 31 22 13 22 13 -17
25 -22 7 -50 10 -62 7 -25 -6 -30 6 -10 27 9 11 8 11 -8 0 -11 -8 -27 -22 -37
-30 -10 -8 -33 -17 -51 -20 -30 -5 -32 -8 -37 -50 l-6 -45 -12 53 c-14 63 -15
141 -2 162 8 13 10 12 10 -2 0 -10 7 -18 15 -18 9 0 26 -6 38 -14 35 -22 91
-10 110 24 10 15 17 36 17 45 0 27 35 13 38 -15 5 -41 86 -78 98 -46 3 8 13
16 23 19 24 6 33 44 14 62 -13 14 -32 17 -123 19 -32 1 -35 4 -33 28 1 23 -4
29 -40 42 -23 8 -51 16 -61 18 -35 5 -27 26 16 41 53 18 124 18 160 0z m-162
-115 c0 -3 -15 -10 -32 -13 -18 -4 -39 -12 -45 -17 -17 -13 -18 13 -2 29 12
12 79 13 79 1z m-164 -205 c-7 -7 -26 7 -26 19 0 6 6 6 15 -2 9 -7 13 -15 11
-17z m8 -19 c17 -7 22 -34 6 -34 -5 0 -14 9 -20 20 -12 22 -10 23 14 14z m244
-282 c2 -7 -2 -10 -12 -6 -9 3 -16 11 -16 16 0 13 23 5 28 -10z m302 -153 c0
-6 -4 -7 -10 -4 -5 3 -10 11 -10 16 0 6 5 7 10 4 6 -3 10 -11 10 -16z"/>
<path d="M2845 4321 c-74 -27 -119 -57 -160 -106 -73 -90 -82 -154 -35 -253
32 -68 37 -87 19 -76 -6 3 -15 0 -20 -7 -15 -24 -10 -54 14 -79 l24 -25 -49
-33 c-26 -18 -60 -51 -74 -74 l-26 -41 -21 62 c-11 35 -28 65 -36 68 -41 13
-81 35 -81 44 0 6 -4 8 -9 4 -6 -3 -34 4 -63 16 -75 30 -204 41 -242 22 -69
-36 -124 -87 -161 -150 -34 -57 -39 -76 -43 -144 -3 -50 0 -97 9 -127 7 -26
12 -52 11 -58 -3 -16 27 -84 37 -84 9 0 21 73 21 132 0 34 7 47 54 96 l54 57
64 -1 c35 -1 84 -2 110 -3 29 -1 53 -7 64 -18 9 -10 32 -18 51 -19 54 -2 81
-36 98 -128 8 -43 19 -85 24 -94 9 -16 10 -15 17 2 4 10 2 27 -5 38 -16 26 -3
44 15 21 26 -35 8 -105 -35 -135 -33 -23 -51 -86 -43 -147 4 -30 12 -56 17
-58 10 -3 33 67 59 180 16 71 35 88 55 50 9 -18 12 -44 7 -85 l-6 -58 59 -43
59 -43 -19 -23 c-31 -38 -24 -55 36 -83 30 -14 55 -25 55 -23 0 1 -9 28 -19
60 -11 33 -17 63 -14 68 2 4 17 7 31 5 15 -1 59 13 99 32 l72 34 21 65 c11 35
17 67 13 71 -20 17 -105 61 -99 51 12 -18 -4 -34 -20 -20 -7 6 -20 9 -29 6 -8
-4 -17 -2 -21 4 -3 6 -13 8 -21 5 -24 -10 -34 3 -22 26 l12 21 -37 -21 -37
-22 -23 25 -23 25 -20 -23 c-11 -12 -23 -31 -27 -42 -7 -19 -8 -19 -18 -1 -7
13 -7 30 1 56 6 20 11 49 11 63 0 13 7 38 15 53 8 16 15 23 15 16 0 -7 4 -11
9 -8 4 3 6 -6 3 -19 -3 -19 0 -25 13 -25 9 0 31 -11 47 -26 18 -14 37 -23 46
-19 9 3 19 0 23 -6 5 -8 15 -3 33 16 27 29 41 26 48 -9 4 -26 53 -38 101 -25
20 5 42 7 47 4 6 -4 10 7 10 24 0 16 5 33 10 36 14 9 12 -49 -4 -117 -14 -56
-6 -82 9 -35 l8 22 4 -23 c3 -13 -1 -30 -7 -38 -14 -16 -35 -20 -25 -4 3 6 3
10 0 10 -12 0 -53 -103 -48 -118 5 -11 3 -13 -7 -7 -10 6 -11 3 -6 -16 4 -13
10 -35 13 -47 4 -16 20 -30 50 -43 25 -10 48 -19 51 -19 12 0 15 63 7 125 -14
101 -2 222 25 267 14 24 17 46 13 127 -4 94 -3 100 19 115 l23 17 -27 -5 c-16
-3 -28 0 -28 5 0 5 -16 27 -36 49 -20 22 -34 46 -31 54 6 16 -12 26 -48 26
-13 0 -27 5 -31 12 -5 8 9 9 54 5 49 -5 62 -4 62 7 0 13 -34 25 -89 32 -13 2
-44 -1 -69 -6 -29 -5 -51 -4 -62 2 -11 7 -32 7 -65 0 -28 -6 -52 -9 -54 -7
-11 12 0 197 13 227 22 49 62 89 81 82 10 -4 27 3 43 19 19 19 36 25 57 23 17
-1 42 3 57 11 55 27 125 5 130 -42 0 -8 1 -20 2 -27 1 -7 -18 -12 -52 -12 -30
-1 -56 -6 -60 -13 -10 -16 -3 -83 9 -83 5 0 9 -6 9 -14 0 -30 70 -35 103 -8
15 11 23 30 25 57 4 61 9 70 29 54 22 -19 43 -72 43 -109 0 -73 43 -2 62 102
9 53 8 61 -17 113 -27 54 -65 95 -90 95 -6 0 -25 12 -42 28 -58 51 -168 66
-258 33z m255 -321 c8 -16 8 -20 -4 -20 -27 0 -67 20 -61 30 11 18 54 11 65
-10z m-427 -165 c-3 -9 -8 -14 -10 -11 -3 3 -2 9 2 15 9 16 15 13 8 -4z m177
-155 c-9 -35 -9 -46 5 -66 8 -13 24 -24 34 -24 27 0 65 -34 58 -52 -3 -9 -24
-18 -51 -22 -25 -4 -52 -14 -60 -22 -16 -15 -27 -18 -25 -6 5 29 -4 40 -36 46
-31 6 -35 11 -35 36 0 33 29 55 61 47 14 -4 19 0 19 13 0 11 4 29 9 42 5 13
12 32 15 42 12 37 17 7 6 -34z m-325 -280 c3 -5 1 -10 -4 -10 -6 0 -11 5 -11
10 0 6 2 10 4 10 3 0 8 -4 11 -10z m253 -266 c18 -4 32 -10 32 -14 0 -12 -28
-20 -45 -14 -8 4 -17 -1 -21 -10 -8 -21 -27 -20 -48 3 -15 16 -15 20 -2 31 9
6 15 15 14 18 -2 21 4 23 20 9 10 -9 33 -20 50 -23z"/>
<path d="M3637 4239 c-111 -26 -171 -88 -216 -224 -36 -109 -38 -127 -13 -119
12 4 13 3 4 -3 -21 -16 -33 -74 -32 -168 0 -49 0 -97 -1 -105 0 -8 2 -40 6
-70 4 -30 9 -79 12 -107 6 -55 15 -63 52 -43 12 6 21 26 26 57 10 74 26 133
36 133 13 0 11 -48 -3 -52 -24 -8 3 -38 61 -67 33 -17 62 -35 66 -41 10 -16
103 37 160 91 48 45 53 54 58 105 5 51 3 60 -21 90 -28 36 -42 43 -42 21 0
-10 -14 -10 -65 -3 -59 9 -64 12 -59 30 6 19 5 20 -12 6 -10 -8 -25 -23 -32
-32 -7 -10 -23 -18 -35 -18 -29 0 -43 -10 -51 -37 -4 -13 -11 -23 -16 -23 -19
0 -28 38 -35 141 l-7 105 45 45 c34 35 53 46 76 46 39 0 61 17 43 35 -22 22
-12 38 33 49 51 13 58 26 53 102 -4 70 -12 75 -91 56z m-190 -481 c-11 -7 -3
-12 16 -9 15 2 6 -19 -13 -29 -15 -8 -21 -6 -30 10 -6 12 -8 30 -4 42 4 14 2
18 -5 14 -7 -4 -11 1 -11 13 0 18 2 17 30 -7 21 -19 26 -28 17 -34z m351 -71
c3 -12 -4 -17 -22 -17 -28 0 -33 9 -14 28 15 15 32 10 36 -11z m-298 -33 c0
-8 -4 -12 -10 -9 -5 3 -10 10 -10 16 0 5 5 9 10 9 6 0 10 -7 10 -16z m259 -20
c6 4 20 2 32 -4 17 -10 20 -18 15 -43 -4 -18 -7 -38 -8 -46 -2 -15 -58 -41
-85 -40 -10 0 -2 6 17 12 l35 11 -35 3 c-50 5 -89 23 -101 45 -13 24 -5 35 14
20 7 -6 31 -14 54 -18 43 -7 63 7 44 30 -6 7 -8 16 -4 19 3 4 1 7 -6 7 -7 0
-9 5 -5 11 5 8 9 8 14 -1 4 -7 13 -10 19 -6z"/>
<path d="M6785 4211 c-88 -32 -99 -38 -132 -73 -36 -38 -77 -149 -68 -185 9
-36 -1 -27 -27 23 -28 57 -75 99 -147 132 -45 21 -71 26 -131 25 -85 -1 -130
-16 -184 -63 -53 -47 -77 -101 -85 -197 -3 -45 -12 -88 -19 -95 -6 -6 -12 -29
-12 -50 0 -31 5 -41 24 -49 13 -6 29 -23 36 -37 9 -22 9 -28 -4 -38 -23 -16
-20 -26 7 -22 21 3 22 7 22 103 0 79 4 107 17 128 21 31 52 50 76 45 13 -3 9
-8 -15 -21 -19 -10 -34 -26 -34 -37 -1 -11 -2 -24 -3 -30 -1 -5 14 -21 33 -35
26 -18 47 -25 81 -25 48 0 70 13 70 41 0 9 7 20 16 23 23 9 24 8 24 -18 0 -30
19 -45 66 -53 26 -4 40 -2 48 9 6 8 18 17 27 20 20 8 31 58 17 75 -6 7 -33 16
-60 19 -31 4 -61 16 -80 32 -24 21 -31 23 -39 11 -8 -12 -11 -11 -19 3 -12 19
-65 48 -90 48 -20 0 -32 41 -19 62 14 23 90 12 170 -25 85 -39 95 -48 79 -77
-8 -16 -8 -20 4 -20 21 0 63 -41 76 -74 5 -15 10 -59 10 -97 0 -67 1 -69 20
-57 11 7 20 20 20 28 0 12 2 13 9 1 7 -11 11 -10 20 7 14 26 14 59 1 67 -5 3
-10 12 -10 18 0 7 7 4 14 -5 18 -25 39 -23 31 2 -7 21 10 29 18 8 2 -7 7 20
11 61 6 63 13 83 47 132 51 76 110 117 139 99 11 -7 12 -14 2 -36 -7 -14 -10
-29 -7 -32 3 -3 10 9 16 26 12 35 28 39 91 22 32 -9 39 -17 49 -50 10 -31 19
-42 45 -50 47 -16 55 -30 61 -115 6 -70 15 -96 31 -81 3 4 0 16 -7 27 -7 12
-10 24 -6 27 3 4 10 1 14 -7 6 -9 10 -6 14 11 4 12 3 24 -1 26 -5 1 -4 34 1
73 12 92 4 127 -38 180 -19 24 -35 49 -35 55 0 16 -40 49 -87 73 -60 30 -137
35 -198 12z m-198 -323 c-3 -7 -5 -2 -5 12 0 14 2 19 5 13 2 -7 2 -19 0 -25z
m18 -78 c3 -5 1 -10 -4 -10 -6 0 -11 5 -11 10 0 6 2 10 4 10 3 0 8 -4 11 -10z"/>
<path d="M7447 4216 c-74 -27 -162 -99 -192 -156 -21 -40 -29 -156 -15 -210
34 -134 34 -123 -4 -163 -27 -29 -38 -53 -51 -112 -17 -75 -14 -125 6 -125 8
0 8 4 2 13 -17 21 37 98 93 134 72 45 87 62 75 77 -8 10 -1 17 31 32 31 14 43
15 46 6 2 -7 7 -10 12 -7 16 10 106 -28 127 -54 24 -28 30 -47 12 -35 -7 4
-10 1 -7 -7 2 -8 13 -18 24 -23 22 -10 79 -166 65 -176 -13 -9 -26 -46 -29
-83 -1 -11 -7 -15 -14 -11 -7 5 -8 3 -3 -5 8 -15 -82 -101 -99 -95 -14 5 -28
-5 -42 -31 -14 -25 -54 -33 -123 -23 -58 7 -71 18 -71 61 0 27 -22 38 -35 16
-4 -6 -13 -8 -21 -5 -22 8 11 -53 44 -83 15 -13 20 -20 12 -16 -8 5 -23 15
-33 23 -9 8 -20 12 -24 8 -4 -3 17 -31 46 -60 47 -47 56 -53 79 -46 15 5 60
18 100 30 40 12 83 31 97 42 l25 19 0 -32 c0 -61 113 -126 144 -84 11 15 13
14 24 -9 6 -13 20 -30 32 -36 33 -18 25 17 -21 94 -22 37 -47 85 -55 107 -13
38 -13 41 4 34 11 -4 7 4 -11 23 -25 26 -27 33 -17 52 8 15 8 25 0 35 -8 10
-7 13 7 11 23 -1 30 34 9 46 -14 8 -15 12 -1 38 9 17 19 30 24 30 18 0 22 34
6 46 -14 11 -13 15 9 38 15 14 26 31 26 39 0 8 6 19 13 25 7 6 14 24 15 40 2
22 -3 31 -17 35 -15 4 -23 -5 -36 -42 -10 -25 -22 -50 -26 -55 -13 -14 -11 31
2 56 6 12 8 39 4 69 l-7 49 -42 0 c-23 0 -50 6 -61 13 -11 8 -28 17 -38 20
-15 6 -17 3 -12 -15 6 -18 4 -20 -16 -14 -74 23 -111 25 -166 11 -30 -8 -62
-20 -69 -26 -11 -9 -14 -5 -15 22 -3 61 3 103 19 139 8 19 14 38 14 42 -2 9
48 48 62 48 6 -1 -1 -8 -16 -16 -31 -16 -38 -37 -10 -27 27 10 52 35 45 46 -3
5 -1 7 4 4 6 -4 24 0 41 9 41 20 127 30 136 15 10 -16 51 -14 66 4 18 22 28
18 23 -9 -3 -16 8 -51 31 -95 26 -52 36 -84 36 -119 0 -69 8 -91 31 -85 10 3
19 10 19 16 0 18 58 -67 65 -96 4 -15 12 -27 19 -27 6 0 21 -3 33 -6 33 -9 63
27 63 76 0 46 24 56 40 16 6 -18 20 -27 44 -32 20 -3 42 -4 48 -1 28 10 33 6
36 -28 3 -34 3 -35 -29 -28 -24 4 -34 2 -41 -10 -6 -12 -22 -17 -53 -17 -24 0
-47 -5 -50 -10 -4 -6 -10 -8 -15 -5 -4 3 -13 -2 -20 -10 -7 -8 -16 -13 -20
-10 -4 3 -13 -2 -20 -10 -10 -12 -8 -24 11 -61 31 -59 68 -97 123 -124 29 -15
49 -34 60 -57 15 -31 20 -35 46 -29 33 6 47 -6 25 -24 -16 -14 -65 -115 -65
-136 0 -8 15 2 33 22 42 46 67 39 67 -17 0 -27 4 -39 14 -39 18 0 34 62 17 68
-6 2 -11 8 -11 13 0 4 7 6 15 3 9 -4 17 1 20 10 17 55 16 52 26 34 5 -9 37
-35 72 -59 34 -23 74 -51 88 -62 l27 -19 45 26 c25 15 66 46 92 70 48 45 46
45 61 -3 4 -11 8 -11 22 3 10 9 26 16 35 16 9 0 20 8 26 18 11 19 36 10 55
-22 9 -13 7 -20 -9 -32 -26 -19 -14 -29 102 -88 88 -45 93 -46 125 -33 42 19
118 84 118 103 0 8 11 20 25 26 27 12 33 27 13 29 -7 1 -20 2 -28 3 -8 0 -13
8 -12 16 2 8 0 12 -4 8 -9 -10 -35 12 -28 23 3 5 0 9 -5 9 -6 0 -11 7 -11 15
0 8 -6 12 -13 9 -7 -2 -28 2 -46 9 l-33 14 31 13 c51 21 37 41 -29 42 -45 0
-59 12 -33 27 10 6 13 11 7 11 -17 0 -36 -27 -32 -47 2 -10 14 -23 26 -29 15
-7 20 -14 13 -19 -14 -8 -53 4 -46 15 6 9 -23 22 -35 15 -4 -3 -10 2 -13 10
-7 17 -82 57 -91 48 -9 -10 -7 40 3 55 11 18 10 18 60 -7 40 -21 47 -22 88 -9
83 24 84 79 3 109 l-43 16 36 7 c46 9 57 25 29 44 -12 8 -22 21 -22 28 0 27
41 14 83 -26 23 -23 60 -46 82 -52 22 -6 50 -20 62 -31 31 -27 48 -109 34
-166 -5 -25 -7 -49 -5 -53 3 -5 -1 -19 -8 -31 -8 -12 -18 -30 -21 -41 -6 -15
-3 -17 12 -13 11 3 22 0 24 -6 2 -7 16 -4 36 10 20 12 29 23 22 27 -17 11 -13
72 5 87 12 10 20 10 34 1 18 -11 19 -8 14 63 -6 74 -6 76 25 107 36 37 46 34
25 -7 -12 -24 -13 -34 -3 -52 7 -13 10 -26 6 -29 -3 -3 8 -19 25 -36 22 -22
37 -28 61 -26 26 3 32 9 45 47 15 44 15 44 28 20 7 -14 48 -54 90 -90 47 -38
72 -65 64 -67 -18 -4 -92 -94 -83 -102 3 -3 8 1 10 8 5 14 41 16 61 3 20 -12
-24 -181 -47 -181 -48 0 -114 72 -140 153 -7 20 -17 37 -22 37 -6 0 -8 -4 -4
-9 6 -10 -17 -8 -47 4 -13 5 -15 2 -11 -13 3 -13 12 -18 29 -16 16 1 24 -3 24
-13 0 -8 6 -13 13 -10 9 3 13 -2 12 -16 -1 -12 -5 -21 -8 -19 -27 9 -81 1 -99
-15 -17 -15 -18 -13 -18 25 0 23 3 42 8 42 4 0 12 10 17 23 6 13 19 22 32 22
30 0 38 12 13 20 -13 4 -30 0 -47 -12 -14 -10 -34 -23 -45 -29 -11 -7 -24 -16
-30 -22 -6 -6 -16 -8 -24 -5 -8 3 -15 -7 -19 -30 -8 -43 -2 -214 9 -242 7 -18
6 -18 -6 -3 -12 14 -14 3 -13 -80 0 -54 3 -99 7 -102 3 -3 4 -17 1 -31 l-5
-26 -49 20 c-27 11 -51 18 -54 15 -3 -3 -1 -45 6 -94 6 -49 13 -112 16 -140
l5 -50 -73 -34 c-41 -18 -76 -35 -78 -36 -2 -2 4 -13 14 -24 15 -16 31 -20 90
-20 67 0 73 2 83 25 12 26 36 33 47 15 4 -6 16 -3 31 9 24 19 85 28 209 33 55
2 60 0 63 -20 3 -16 -4 -25 -22 -32 -14 -5 -26 -14 -26 -20 0 -13 185 -13 210
0 12 6 21 6 25 1 7 -13 65 -11 90 2 19 10 19 10 -3 18 -19 7 -20 11 -11 39 12
32 7 60 -11 60 -5 0 -11 -26 -12 -57 l-2 -58 -3 53 -4 52 -37 0 c-35 0 -37 -2
-40 -36 -1 -20 -4 -40 -7 -44 -8 -13 -55 14 -55 31 0 20 -31 49 -52 49 -9 0
-21 7 -28 15 -11 13 -8 14 21 7 19 -4 80 -7 137 -7 l104 0 5 -27 6 -28 106 0
c65 0 101 4 92 9 -7 5 -27 7 -43 4 -20 -3 -28 -1 -23 6 3 6 2 11 -4 11 -5 0
-13 -4 -16 -10 -3 -5 -12 -10 -18 -10 -8 0 -7 3 2 9 11 7 11 9 0 14 -8 3 10 4
38 2 29 -2 56 -6 61 -9 5 -3 17 9 27 27 14 24 15 29 3 20 -22 -19 -26 -9 -16
54 26 177 -10 522 -59 558 -36 28 -60 10 -28 -21 8 -9 15 -25 15 -37 0 -12 11
-46 25 -76 14 -30 23 -56 21 -59 -3 -2 -18 5 -34 17 -45 31 -97 26 -69 -7 10
-13 9 -14 -10 -4 -12 7 -23 17 -25 22 -2 6 -11 8 -20 5 -19 -8 -27 -67 -16
-130 3 -22 2 -44 -3 -50 -6 -5 -9 -4 -10 5 -1 8 -4 4 -8 -9 -12 -42 -33 -38
-31 5 4 73 1 84 -19 84 -11 0 -21 -3 -24 -7 -2 -5 -2 -3 -1 4 2 6 -3 16 -10
22 -8 7 -16 26 -20 44 -4 17 -23 49 -43 69 -36 37 -36 38 -13 38 77 1 166 14
173 26 10 17 37 18 38 2 1 -25 8 -50 14 -56 4 -4 6 18 4 48 -2 30 0 61 4 68 5
7 -8 1 -27 -12 -47 -32 -135 -45 -151 -22 -7 8 -16 12 -20 8 -5 -4 -5 1 -1 12
3 10 1 24 -5 32 -7 9 -7 19 0 31 5 11 6 25 1 33 -5 8 -5 19 0 25 10 12 9 33
-3 52 -4 6 -3 15 3 18 8 5 8 11 0 20 -8 9 -6 14 6 19 13 5 14 9 5 20 -10 11
-1 25 45 68 31 29 65 66 77 83 l21 30 -25 -21 c-40 -36 -85 -54 -128 -52 -23
1 -39 3 -36 6 2 3 -3 11 -12 18 -15 10 -11 13 30 19 63 10 76 30 17 26 -8 0
-1 6 15 14 24 11 26 14 10 15 -19 1 -19 1 -2 11 10 6 32 15 48 19 27 8 30 7
27 -13 -2 -14 2 -22 12 -22 21 -1 30 15 30 57 0 28 -8 45 -34 72 -48 52 -79
43 -40 -12 18 -26 11 -42 -18 -42 -15 0 -19 5 -15 20 6 24 -12 38 -24 19 -7
-11 -11 -11 -21 4 -9 12 -24 17 -43 15 -24 -2 -29 1 -27 15 4 22 6 22 -72 -13
-58 -26 -68 -28 -73 -13 -3 8 -1 24 5 34 12 19 6 49 -9 49 -5 0 -9 4 -9 9 0 4
11 6 25 3 14 -2 25 -8 25 -12 0 -12 64 -31 92 -28 32 5 48 16 58 44 10 26 40
33 40 9 0 -26 64 -50 102 -38 18 5 32 15 30 22 -1 7 7 15 18 18 25 7 25 12 3
30 -13 10 -15 16 -5 19 39 17 -27 47 -100 45 -49 -1 -51 0 -31 14 12 8 28 12
37 9 10 -4 16 -1 16 7 0 7 -3 9 -7 6 -3 -4 -12 -2 -19 3 -6 6 -39 15 -73 21
-85 13 -111 25 -111 48 0 16 12 24 52 36 28 8 60 15 69 15 15 0 17 7 14 45 -4
35 -1 45 10 45 8 0 12 -6 9 -14 -3 -7 2 -20 10 -29 9 -9 16 -20 16 -26 0 -5 6
-14 13 -18 7 -4 23 -25 36 -46 12 -20 27 -35 31 -32 9 5 46 -44 78 -101 7 -12
13 -51 14 -86 0 -42 3 -56 9 -43 4 11 8 14 8 7 1 -7 6 -10 12 -6 6 3 8 17 5
29 -3 13 -2 26 2 29 14 8 5 169 -12 228 -17 60 -67 125 -124 160 -32 19 -49
22 -128 22 -81 -1 -99 -5 -155 -32 -105 -51 -149 -130 -149 -264 0 -47 -4 -62
-25 -84 -36 -38 -55 -82 -58 -131 -3 -52 -15 -42 -47 41 -26 66 -77 121 -135
146 -24 11 -80 20 -141 24 l-101 7 -50 -34 -51 -34 -16 33 c-11 25 -12 34 -3
34 6 0 -4 15 -23 32 -19 18 -34 36 -33 40 2 4 -4 5 -13 1 -9 -3 -27 5 -44 22
-30 29 -84 44 -161 45 -37 0 -50 5 -75 31 -47 50 -94 68 -282 111 l-54 12 -93
-47 c-52 -27 -105 -61 -119 -77 -26 -32 -36 -30 -36 7 0 30 -14 58 -54 105
-17 20 -42 51 -55 69 -14 17 -43 40 -65 50 -49 22 -144 24 -199 5z m2233 -126
c0 -5 -2 -10 -4 -10 -3 0 -8 5 -11 10 -3 6 -1 10 4 10 6 0 11 -4 11 -10z
m-151 -331 c-8 -5 -21 -9 -29 -9 -12 1 -11 4 4 15 10 8 23 12 29 8 5 -3 3 -9
-4 -14z m-1542 -15 c-9 -9 -28 6 -21 18 4 6 10 6 17 -1 6 -6 8 -13 4 -17z
m429 16 c8 -8 19 -8 38 0 15 5 35 10 44 10 13 0 13 -2 -4 -15 -18 -14 -17 -14
16 -16 19 -1 42 -1 52 0 9 1 19 -3 23 -9 3 -5 16 -10 29 -10 16 0 28 -10 38
-32 33 -69 63 -207 54 -244 -7 -28 5 -31 28 -8 9 8 16 11 16 5 0 -5 -4 -13
-10 -16 -5 -3 -10 -11 -10 -17 0 -7 6 -6 15 2 18 15 19 7 5 -21 -8 -13 -17
-18 -33 -14 -19 5 -25 0 -36 -30 -7 -20 -15 -34 -18 -32 -2 3 0 14 5 24 13 23
-13 83 -35 83 -7 0 -32 9 -54 21 -47 23 -61 19 -33 -12 18 -20 18 -22 2 -33
-10 -7 -15 -16 -11 -19 3 -4 -4 -7 -16 -7 -18 0 -22 4 -16 18 12 30 11 47 -5
48 -8 0 -23 4 -32 8 -9 4 -25 3 -36 -3 -24 -13 -36 -3 -20 16 6 7 8 17 4 20
-4 4 -10 3 -14 -3 -12 -19 -48 -33 -105 -42 -52 -8 -55 -7 -54 12 0 12 -3 42
-7 67 -6 37 -5 47 8 52 10 4 13 1 9 -8 -3 -9 2 -17 13 -21 11 -3 33 -12 51
-21 18 -9 50 -17 72 -18 39 -2 41 -1 57 44 28 75 34 76 48 9 4 -18 16 -29 37
-37 44 -15 56 -14 77 7 10 10 26 21 35 25 26 10 22 61 -6 80 -37 24 -101 31
-134 13 -26 -13 -33 -13 -58 0 -15 8 -36 14 -46 14 -11 0 -19 5 -19 10 0 6 5
10 11 10 5 0 8 4 4 9 -3 5 -1 12 5 16 20 13 9 24 -32 32 l-43 9 30 17 c35 19
47 21 61 7z m-97 -33 c-2 -1 -15 -11 -29 -22 l-25 -20 19 23 c11 12 24 22 29
22 6 0 8 -1 6 -3z m21 -74 c-8 -3 -23 -10 -32 -14 -11 -6 -19 -5 -24 3 -4 6
-3 8 2 5 6 -3 16 -2 24 4 8 5 22 8 30 8 13 -1 13 -1 0 -6z m-1052 -33 c-9 -14
-14 -16 -20 -7 -13 20 -9 27 12 27 18 0 19 -3 8 -20z m816 -36 c23 -22 20 -34
-8 -34 -13 0 -31 -3 -40 -6 -21 -8 -21 14 1 38 20 22 27 22 47 2z m671 -24 c3
-5 -1 -10 -10 -10 -9 0 -13 5 -10 10 3 6 8 10 10 10 2 0 7 -4 10 -10z m-800
-19 c3 -5 1 -12 -5 -16 -5 -3 -10 1 -10 9 0 18 6 21 15 7z m1314 -33 c0 -31
-1 -31 -10 -10 -5 13 -7 28 -3 33 10 16 14 9 13 -23z m456 0 c3 -3 -8 -9 -25
-13 -34 -8 -103 2 -96 13 5 9 112 9 121 0z m-1578 -103 c9 -14 15 -17 21 -8 5
8 13 9 22 3 10 -7 11 -10 3 -10 -7 0 -13 -4 -13 -10 0 -5 7 -7 16 -3 12 4 15
2 12 -8 -8 -25 -43 -22 -56 6 -10 21 -18 25 -52 25 -42 0 -50 11 -24 37 12 13
13 18 3 24 -10 6 -9 13 6 29 l19 21 16 -43 c8 -24 21 -52 27 -63z m398 -110
c0 -44 3 -43 -93 -29 -48 7 -69 25 -25 23 43 -3 73 10 73 32 0 15 6 20 23 17
19 -3 22 -9 22 -43z m-911 -32 c-2 -39 -3 -40 -15 -20 -6 9 -15 14 -21 11 -6
-4 -8 -1 -6 7 3 8 11 13 17 12 6 -2 11 2 11 7 0 6 4 10 8 10 4 0 7 -12 6 -27z
m616 -3 c0 -5 -5 -10 -11 -10 -5 0 -7 5 -4 10 3 6 8 10 11 10 2 0 4 -4 4 -10z
m-63 -6 c-3 -3 -12 -4 -19 -1 -8 3 -5 6 6 6 11 1 17 -2 13 -5z m-597 -29 c0
-8 -4 -15 -10 -15 -5 0 -7 7 -4 15 4 8 8 15 10 15 2 0 4 -7 4 -15z m620 -25
c0 -5 -2 -10 -4 -10 -3 0 -8 5 -11 10 -3 6 -1 10 4 10 6 0 11 -4 11 -10z m783
-20 c30 0 37 -4 37 -19 0 -25 -16 -30 -73 -21 -55 8 -60 11 -51 34 5 12 13 16
28 12 11 -3 38 -6 59 -6z m-1274 -100 c11 -24 11 -24 -3 -6 -9 11 -16 24 -16
30 0 12 5 7 19 -24z m1781 -44 c14 -18 13 -19 -2 -13 -22 8 -22 6 -5 -27 8
-14 17 -23 20 -20 3 3 3 -3 0 -15 -3 -12 -1 -21 5 -21 6 0 14 -9 17 -20 3 -11
11 -20 17 -20 10 0 8 13 -7 55 -6 15 0 12 22 -10 42 -44 75 -94 69 -104 -3 -5
11 -24 32 -42 20 -18 29 -30 19 -26 -21 8 -45 -2 -30 -12 6 -3 13 -19 17 -34
6 -26 5 -28 -16 -22 -25 8 -77 63 -78 81 0 6 -7 17 -15 24 -13 11 -14 8 -9
-19 4 -17 3 -31 -1 -31 -11 0 -34 33 -35 50 -1 8 -11 36 -24 62 -17 37 -25 45
-34 36 -16 -16 -16 -52 0 -42 8 5 9 2 5 -10 -4 -10 -7 -23 -8 -29 0 -7 -4 -3
-8 8 -6 16 -10 9 -20 -33 -7 -28 -18 -52 -24 -52 -9 0 -9 -2 -1 -8 16 -10 44
-79 44 -106 -1 -19 -3 -18 -23 9 -24 33 -28 47 -13 57 6 4 7 10 3 14 -12 12
-32 -16 -57 -78 -13 -31 -27 -55 -32 -52 -4 3 -4 13 1 22 5 10 9 28 9 42 0 28
12 76 48 191 19 62 21 83 13 113 -11 39 -6 56 16 56 26 0 65 23 65 38 0 9 1
13 3 11 1 -2 9 -13 17 -23z m450 -288 c0 -12 5 -36 12 -55 6 -18 9 -36 5 -39
-8 -9 -17 -1 -21 18 -8 38 -20 74 -29 86 -7 9 -4 12 12 12 15 0 21 -6 21 -22z
m-103 -104 c-3 -3 -12 -4 -19 -1 -8 3 -5 6 6 6 11 1 17 -2 13 -5z m109 -157
c8 -4 14 -21 14 -38 0 -26 -2 -28 -19 -17 -23 14 -34 49 -24 74 5 14 8 15 11
3 3 -7 11 -18 18 -22z m-429 -129 c-3 -8 -6 -5 -6 6 -1 11 2 17 5 13 3 -3 4
-12 1 -19z m361 5 c-10 -2 -26 -2 -35 0 -10 3 -2 5 17 5 19 0 27 -2 18 -5z
m-135 -38 c-3 -13 -12 -30 -20 -36 -12 -11 -13 -8 -7 17 8 36 13 44 23 44 5 0
6 -11 4 -25z"/>
<path d="M9655 2790 c3 -5 11 -10 16 -10 6 0 7 5 4 10 -3 6 -11 10 -16 10 -6
0 -7 -4 -4 -10z"/>
<path d="M4331 4116 c9 -7 119 -55 119 -51 0 9 -88 55 -105 55 -10 0 -16 -2
-14 -4z"/>
<path d="M2780 4047 c-29 -15 -51 -90 -32 -109 19 -19 119 -23 145 -5 32 21
43 84 20 109 -19 22 -95 24 -133 5z m67 -54 c2 -6 -7 -13 -21 -15 -15 -3 -24
-1 -23 6 5 25 37 31 44 9z"/>
<path d="M5322 4008 c-33 -9 -52 -38 -52 -78 0 -13 5 -17 20 -13 13 4 20 0 20
-10 0 -16 29 -27 73 -27 31 0 33 -5 13 -26 -8 -7 -16 -19 -18 -25 -2 -7 -24
-13 -49 -13 -42 -1 -44 -2 -45 -33 -1 -45 20 -100 53 -136 l28 -31 -29 18 -29
18 7 -35 c4 -23 3 -36 -5 -39 -16 -5 8 -28 83 -81 33 -23 69 -48 79 -56 16
-12 26 -7 89 49 68 61 86 86 55 74 -18 -7 -21 27 -5 56 9 17 8 17 -40 -1 -50
-19 -50 -19 -38 1 8 12 19 18 30 14 12 -4 24 5 38 28 11 18 16 34 10 36 -5 2
-5 13 1 29 20 54 -9 78 -61 48 -37 -21 -71 -20 -63 3 4 9 14 22 22 29 24 18 5
27 -54 27 -50 0 -53 2 -39 17 8 9 14 20 13 25 -1 5 0 16 4 24 3 8 8 27 11 43
6 27 36 39 36 14 0 -19 30 -44 63 -52 23 -6 33 -2 58 23 16 17 26 33 20 36 -5
3 -7 15 -4 26 7 25 -28 34 -94 26 -57 -7 -75 -8 -128 -2 -22 2 -55 -1 -73 -6z
m94 -209 c8 -14 -11 -33 -25 -25 -11 7 -4 36 9 36 5 0 12 -5 16 -11z m114
-139 c0 -5 -7 -7 -15 -4 -8 4 -15 8 -15 10 0 2 7 4 15 4 8 0 15 -4 15 -10z"/>
<path d="M3553 3938 c-13 -6 -23 -16 -23 -22 0 -6 -3 -21 -6 -33 -5 -17 -2
-23 9 -23 9 0 25 -9 35 -20 11 -12 31 -20 48 -20 88 1 85 0 105 48 23 53 18
61 -43 73 -57 11 -98 10 -125 -3z"/>
<path d="M7505 3940 c-4 -6 -25 -8 -54 -4 -37 5 -56 2 -88 -15 -44 -22 -66
-67 -41 -82 20 -13 70 -21 108 -17 28 2 35 9 45 38 14 41 37 46 45 10 8 -35
61 -49 104 -28 17 9 39 19 49 22 28 9 20 22 -31 55 -50 32 -123 43 -137 21z"/>
<path d="M3224 3915 c-7 -17 21 -61 30 -47 6 11 -9 62 -19 62 -3 0 -8 -7 -11
-15z"/>
<path d="M6730 3912 c-20 -6 -25 -15 -27 -45 -3 -27 1 -37 11 -37 8 0 16 -6
19 -14 14 -36 130 -25 142 14 8 26 33 33 40 10 8 -27 53 -60 80 -60 30 0 80
44 72 64 -4 9 -2 16 3 16 21 0 9 20 -21 35 -20 11 -53 16 -97 14 -37 0 -96 1
-132 4 -36 4 -76 3 -90 -1z m73 -59 c-7 -2 -19 -2 -25 0 -7 3 -2 5 12 5 14 0
19 -2 13 -5z m232 -13 c2 -4 -7 -5 -20 -2 -14 2 -25 8 -25 12 0 10 38 1 45
-10z"/>
<path d="M2896 3861 c-17 -19 -17 -20 4 -31 12 -6 24 -9 27 -6 4 3 12 1 20 -5
10 -9 13 -8 13 5 0 9 8 16 20 16 20 0 27 15 13 23 -5 2 -24 7 -44 11 -28 5
-39 2 -53 -13z"/>
<path d="M3200 3876 c0 -3 5 -17 10 -32 8 -19 14 -24 21 -17 8 8 7 17 0 32
-10 18 -31 30 -31 17z"/>
<path d="M5656 3737 c-19 -64 -19 -67 -7 -67 14 0 44 101 33 112 -7 7 -16 -10
-26 -45z"/>
<path d="M6817 3753 c-4 -3 -28 -11 -53 -18 -41 -10 -48 -16 -59 -48 -20 -59
7 -141 54 -166 10 -6 21 -17 25 -26 5 -13 2 -14 -17 -4 -12 7 -35 21 -50 32
-52 36 -38 10 17 -32 79 -61 79 -61 56 -113 -17 -40 -24 -45 -68 -57 -36 -9
-65 -27 -105 -64 -48 -44 -57 -59 -62 -97 -19 -149 -42 -200 -88 -200 -13 0
-17 -5 -13 -16 3 -9 9 -27 12 -41 9 -36 -16 -26 -37 14 -16 32 -85 103 -100
103 -5 0 -9 4 -9 8 0 5 -15 16 -32 25 -29 14 -30 16 -10 16 12 1 22 5 22 9 0
5 -14 7 -30 4 -17 -2 -53 3 -81 12 -28 10 -53 15 -56 13 -6 -7 62 -47 80 -47
46 0 93 -50 149 -159 34 -66 34 -69 2 -73 -15 -2 -32 -11 -38 -20 -8 -13 -5
-21 17 -38 50 -39 28 -42 -39 -5 -54 30 -74 36 -110 33 -26 -2 -45 1 -48 8 -7
18 -66 4 -66 -15 0 -40 -35 -119 -68 -153 -47 -49 -54 -40 -13 17 36 50 84
162 75 176 -10 16 -39 9 -52 -12 -21 -34 -38 -9 -22 33 7 18 16 50 20 71 l8
38 -27 -23 c-14 -13 -29 -27 -33 -33 -5 -6 -11 -1 -14 13 -4 12 -10 22 -15 22
-10 0 -79 103 -79 119 0 6 -7 11 -15 11 -17 0 -19 -11 -6 -26 14 -15 62 -215
56 -235 -3 -9 -2 -20 3 -23 5 -3 5 -28 0 -58 -5 -29 -8 -75 -8 -101 l1 -49
-42 7 c-40 7 -42 6 -26 -10 17 -16 21 -79 5 -69 -4 3 -8 1 -8 -5 0 -5 -11 -11
-25 -13 -14 -2 -26 -7 -26 -13 -1 -16 115 -82 157 -90 21 -3 51 -13 66 -21 15
-8 45 -14 67 -14 59 0 86 -14 105 -54 15 -32 21 -36 56 -36 22 0 40 4 40 10 0
5 13 32 30 58 22 36 41 54 72 67 24 9 52 21 63 26 47 20 78 29 122 34 27 4 56
9 65 11 19 6 40 69 38 112 -1 15 -2 30 -1 35 2 11 60 -21 108 -60 32 -27 47
-32 67 -27 32 8 34 -7 6 -71 -23 -54 -25 -64 -8 -47 21 21 29 13 22 -24 -5
-27 -4 -35 5 -30 17 11 13 -9 -7 -34 -11 -14 -17 -33 -14 -47 4 -20 10 -23 53
-23 53 0 54 1 64 48 6 31 5 33 -12 24 -10 -5 -24 -7 -32 -4 -7 2 -18 -2 -23
-9 -6 -10 -7 -2 -3 24 4 23 2 37 -5 37 -5 0 -10 7 -10 15 0 18 16 20 24 3 4
-7 4 5 1 27 -15 112 -14 124 21 150 18 14 41 39 51 55 9 17 21 30 25 30 4 0
15 -26 23 -57 9 -32 22 -71 30 -88 l14 -30 0 29 c1 16 16 57 35 90 52 94 53
102 16 136 -27 25 -30 33 -20 45 14 17 7 19 -20 5 -11 -6 -28 -29 -38 -53 -10
-23 -27 -49 -37 -57 -10 -8 -16 -10 -12 -3 4 6 3 15 -3 18 -6 4 -8 15 -5 25 7
22 -35 74 -76 96 -27 13 -29 13 -29 -4 0 -9 7 -28 16 -40 14 -20 14 -23 0 -28
-9 -3 -24 -3 -33 1 -12 5 -14 9 -5 12 6 3 12 10 12 17 0 14 -85 30 -102 19 -7
-4 -9 4 -6 21 6 29 -3 34 -21 12 -17 -21 -97 -46 -108 -35 -6 6 -8 -3 -5 -23
2 -18 2 -30 -2 -27 -9 9 -19 157 -12 185 4 13 11 24 16 24 6 0 6 -10 0 -26 -9
-22 -7 -27 10 -31 11 -3 20 -9 20 -14 0 -16 52 -30 82 -23 18 3 40 21 58 46
26 35 31 38 36 22 12 -32 46 -64 70 -64 31 0 55 10 48 21 -3 5 7 14 23 20 27
10 28 11 8 25 -11 9 -19 20 -17 26 8 30 -62 47 -125 29 -30 -9 -31 -8 -35 22
-3 18 -8 39 -12 48 -5 12 4 28 29 53 19 20 40 36 45 36 15 0 50 -51 50 -73 0
-11 3 -17 6 -14 12 11 58 -23 92 -67 24 -33 32 -53 33 -87 0 -40 17 -102 18
-70 1 7 7 11 16 7 10 -3 20 5 30 24 20 38 19 76 -1 84 -12 5 -15 19 -13 64 3
60 -9 150 -21 167 -4 6 -10 22 -13 36 -17 69 -122 135 -197 123 -36 -6 -40 -4
-40 15 0 23 16 29 23 9 2 -7 8 -10 12 -5 5 4 1 23 -8 42 -13 27 -14 36 -4 39
46 14 107 39 107 45 0 4 -17 6 -37 4 l-38 -3 33 10 c57 18 30 40 -50 40 -29 0
-36 -3 -32 -15 10 -24 -12 -17 -30 10 -31 48 -24 54 64 48 77 -6 80 -5 80 16
0 11 -4 21 -10 21 -5 0 -7 7 -4 15 5 11 2 14 -12 9 -11 -4 -25 -11 -31 -17 -9
-7 -13 -4 -13 8 0 11 -5 15 -15 11 -8 -3 -15 -1 -15 4 0 5 25 9 55 9 30 0 54
-3 54 -7 -3 -18 3 -21 26 -12 23 9 25 7 25 -21 0 -16 -7 -46 -15 -65 l-15 -36
28 18 c57 37 86 92 77 146 -5 30 -13 41 -33 49 -15 5 -35 14 -44 19 -32 18
-39 11 -22 -21 19 -37 10 -50 -29 -42 -27 5 -27 6 -11 24 25 28 5 43 -55 42
-38 0 -48 2 -44 13 5 15 1 18 -10 7z m13 -47 c0 -8 6 -17 13 -19 6 -3 0 -6
-15 -6 -30 -1 -31 0 -22 23 8 20 24 21 24 2z m-4 -124 c-4 -3 -14 2 -24 12
-16 18 -16 18 6 6 13 -6 21 -14 18 -18z m30 -397 c20 -10 23 -15 12 -15 -10 0
-18 -5 -18 -12 0 -12 -29 21 -30 35 0 10 4 9 36 -8z m-206 -219 c0 -3 -4 -8
-10 -11 -5 -3 -10 -1 -10 4 0 6 5 11 10 11 6 0 10 -2 10 -4z m244 -300 c-3 -8
-1 -17 5 -21 7 -4 5 -14 -5 -30 -18 -28 -44 -38 -69 -29 -14 6 -12 9 14 20 29
12 43 34 21 34 -14 0 -12 27 3 33 23 10 36 7 31 -7z m-483 -66 l99 0 0 -70 c0
-66 -1 -70 -22 -71 -158 -6 -220 -6 -209 0 9 6 12 29 9 80 -2 56 0 70 10 66 8
-3 58 -5 113 -5z m-261 -40 c0 -16 6 -18 60 -13 60 6 60 6 60 -21 0 -25 -2
-26 -54 -26 -30 0 -57 -4 -60 -9 -3 -4 -18 -6 -32 -3 -26 5 -27 3 -21 -27 4
-20 3 -30 -3 -26 -6 3 -10 16 -10 28 0 20 -4 22 -47 19 l-48 -3 24 21 c13 11
32 20 42 20 11 0 22 6 25 14 3 8 13 12 25 9 15 -4 19 0 19 21 0 16 4 25 10 21
6 -3 10 -14 10 -25z m453 -32 c40 -16 34 -32 -10 -24 -21 3 -44 6 -50 6 -7 0
-13 9 -13 21 0 22 10 21 73 -3z m-299 -99 c-19 -8 -141 -12 -133 -5 2 2 30 6
62 9 32 2 61 7 64 10 3 4 10 4 16 0 6 -4 3 -10 -9 -14z m-21 -29 c-23 -5 -50
-13 -60 -18 -22 -12 -125 -11 -114 1 5 5 35 11 67 14 33 3 61 7 63 9 2 2 23 4
45 3 l41 -1 -42 -8z"/>
<path d="M6205 3660 c-16 -11 -46 -20 -65 -20 -20 0 -41 -5 -48 -12 -17 -17
-15 -70 4 -118 9 -22 14 -51 10 -64 -5 -20 3 -29 70 -70 42 -25 80 -46 85 -46
13 0 12 -6 -16 -60 -14 -27 -25 -51 -25 -53 0 -2 17 -4 38 -3 20 0 36 -3 36
-9 -10 -76 -11 -97 -7 -82 6 21 23 23 23 2 0 -23 16 -18 17 5 1 11 -1 20 -5
20 -4 0 -9 20 -10 45 -2 44 4 53 24 37 5 -5 22 -14 37 -20 23 -10 27 -10 21 0
-16 27 -49 74 -67 95 -18 21 -18 22 1 32 40 21 128 103 149 139 14 23 23 53
23 79 0 39 -3 44 -32 57 -18 8 -46 23 -61 33 -22 15 -29 15 -36 5 -6 -11 -17
-11 -45 -3 -25 6 -46 7 -63 0 -23 -8 -25 -7 -20 11 6 25 0 25 -38 0z m175 -60
c0 -20 -15 -25 -45 -13 -15 5 -14 8 6 19 33 18 39 17 39 -6z m-30 -60 c0 -5
-7 -10 -16 -10 -8 0 -12 5 -9 10 3 6 10 10 16 10 5 0 9 -4 9 -10z m57 -20 c14
-21 9 -45 -15 -72 -22 -26 -141 -25 -173 0 -15 13 -20 25 -16 36 6 15 9 15 20
4 9 -9 30 -12 61 -10 38 3 49 9 56 27 14 37 49 45 67 15z m-84 -251 c-4 -15
-8 -17 -14 -8 -8 14 -3 29 11 29 4 0 6 -9 3 -21z"/>
<path d="M6000 3646 c0 -9 5 -16 10 -16 6 0 10 4 10 9 0 6 -4 13 -10 16 -5 3
-10 -1 -10 -9z"/>
<path d="M6517 3576 c-3 -8 -2 -18 3 -21 13 -8 20 9 11 24 -6 10 -10 9 -14 -3z"/>
<path d="M7278 3543 c-30 -8 -20 -23 15 -23 17 -1 50 -7 72 -15 50 -18 55 -18
55 -1 0 27 -92 52 -142 39z"/>
<path d="M7481 3511 c-8 -5 -11 -16 -8 -24 3 -9 -1 -18 -9 -21 -15 -6 -16 -41
-1 -38 4 1 17 -8 28 -19 18 -18 30 -20 67 -16 53 6 81 32 59 55 -8 7 -36 19
-63 27 -35 9 -41 13 -23 14 15 1 46 -6 70 -14 l44 -15 -33 30 c-25 24 -41 30
-75 30 -23 0 -48 -4 -56 -9z"/>
<path d="M7254 3486 c-11 -28 33 -66 77 -66 21 0 41 5 44 10 9 15 27 12 19 -2
-5 -10 -4 -10 5 -2 6 6 13 21 16 34 2 12 2 20 -2 16 -3 -3 -12 -1 -19 5 -7 6
-40 13 -73 16 -51 5 -62 3 -67 -11z"/>
<path d="M2234 3479 c-4 -8 -7 -27 -6 -44 5 -51 83 -99 98 -60 4 8 17 15 30
15 33 0 30 18 -3 26 -46 10 -53 13 -53 25 0 8 13 10 40 5 41 -6 51 2 26 23
-23 19 -122 26 -132 10z"/>
<path d="M9027 3481 c-17 -6 -17 -8 -3 -20 9 -7 16 -21 16 -31 0 -9 15 -25 33
-35 32 -17 34 -17 66 3 l33 20 -22 22 -23 23 27 -7 c30 -7 35 8 7 24 -22 11
-106 12 -134 1z"/>
<path d="M2028 3463 c-23 -27 -40 -62 -34 -72 8 -12 61 -23 115 -24 32 -1 47
4 57 18 19 26 18 59 -4 78 -26 24 -114 23 -134 0z"/>
<path d="M7130 3425 c0 -19 5 -35 10 -35 6 0 10 7 10 15 0 8 5 15 10 15 7 0 7
-6 0 -19 -14 -27 -13 -44 4 -67 19 -26 28 -14 32 45 3 43 1 51 -16 56 -11 4
-20 11 -20 16 0 5 -7 9 -15 9 -10 0 -15 -11 -15 -35z"/>
<path d="M3614 3409 c-3 -6 -26 -19 -50 -29 -54 -23 -59 -52 -14 -75 35 -18
34 -14 16 -62 -8 -21 -17 -55 -21 -75 -5 -34 -8 -36 -29 -28 -39 15 -37 0 4
-39 22 -21 40 -45 40 -53 0 -9 5 -20 10 -23 12 -8 13 -62 1 -69 -5 -3 -18 11
-29 32 -16 32 -24 37 -53 37 -22 0 -42 -8 -57 -22 -13 -13 -27 -23 -31 -23 -9
0 -43 -47 -39 -53 2 -2 -3 -11 -10 -19 -7 -9 -14 -35 -16 -59 -2 -24 -6 -45
-10 -47 -3 -1 -19 4 -35 12 -36 19 -57 72 -38 95 8 9 23 36 35 60 19 40 20 45
5 56 -9 7 -13 17 -9 23 11 18 -32 25 -50 8 -21 -21 -27 -20 -21 4 3 11 1 23
-4 26 -5 3 -9 15 -9 26 0 12 -3 19 -6 15 -6 -6 -6 -84 0 -142 2 -16 13 -57 24
-90 28 -81 48 -233 33 -248 -7 -7 -11 -7 -11 -1 0 6 -6 19 -14 30 -13 17 -14
14 -5 -25 7 -33 7 -46 -2 -52 -10 -6 -10 -11 -1 -21 6 -8 8 -24 5 -37 -5 -21
-10 -23 -57 -19 -51 5 -179 40 -205 57 -11 7 -11 20 2 77 9 38 23 89 32 113
18 51 19 61 4 61 -5 0 -7 -4 -4 -10 3 -5 2 -18 -4 -27 -8 -14 -10 -11 -15 17
-3 19 -7 53 -9 76 -4 45 -14 67 -26 60 -12 -8 -1 -118 15 -150 8 -16 13 -31
11 -32 -2 -2 -20 10 -40 27 -48 40 -47 27 3 -32 28 -34 34 -46 21 -42 -27 7
-74 59 -77 85 -1 13 -3 25 -3 27 -1 2 -8 -2 -16 -9 -21 -17 -19 -3 6 36 11 19
18 34 15 34 -3 0 -17 -20 -31 -44 -24 -41 -25 -47 -12 -68 18 -27 50 -155 72
-283 33 -193 40 -220 63 -223 16 -3 21 3 24 25 2 23 8 28 29 28 24 -1 25 2 21
42 -4 39 -2 43 22 49 15 3 40 1 57 -6 26 -11 29 -17 24 -38 -6 -23 -4 -24 28
-18 26 5 40 1 60 -15 27 -20 27 -20 27 0 0 20 1 20 53 -3 28 -13 60 -26 70
-29 9 -4 17 -13 17 -22 0 -12 17 -15 104 -15 58 0 107 4 110 9 3 5 36 9 73 9
54 0 70 4 78 18 28 49 41 54 118 48 57 -5 79 -3 98 9 13 8 41 20 62 27 21 6
66 34 99 61 58 46 87 62 73 39 -3 -5 -1 -10 4 -10 7 0 11 24 11 60 0 56 -2 60
-23 60 -23 0 -52 34 -42 50 3 5 -1 20 -9 33 -13 20 -14 43 -5 169 8 107 8 161
0 199 -7 31 -9 89 -5 143 6 89 6 90 -12 67 -10 -14 -19 -36 -21 -50 -7 -61
-10 -90 -11 -150 -2 -76 -10 -77 -15 0 -3 30 -8 63 -12 73 -7 15 -5 17 5 11
10 -6 12 -4 7 9 -4 10 -7 26 -7 36 0 10 -7 21 -16 24 -12 4 -15 2 -10 -9 7
-19 -8 -19 -38 0 -21 14 -24 14 -29 1 -8 -20 21 -116 41 -138 8 -10 10 -18 4
-18 -10 0 -10 -32 2 -60 3 -8 2 -22 -4 -30 -7 -12 -15 -7 -43 25 -32 37 -36
39 -62 27 -20 -9 -31 -10 -39 -2 -15 15 -24 12 -32 -12 -5 -18 -9 -14 -23 28
-14 44 -19 49 -43 46 -36 -4 -35 5 4 45 17 18 29 35 26 39 -10 9 -90 -69 -104
-102 -7 -17 -20 -36 -28 -44 -9 -7 -16 -19 -16 -26 0 -8 -4 -14 -10 -14 -5 0
-10 10 -10 21 0 12 -17 42 -37 67 -27 33 -32 44 -18 38 11 -5 26 -9 33 -9 6 0
12 -4 12 -9 0 -4 8 -8 18 -8 14 0 15 2 2 10 -14 9 -11 11 15 10 10 -1 64 30
69 39 3 5 -14 6 -39 3 -44 -4 -45 -4 -51 27 -4 17 -10 28 -15 25 -5 -3 -9 -1
-9 5 0 5 5 13 11 17 8 5 6 10 -5 16 -9 5 -14 14 -10 19 3 5 -1 21 -10 34 -20
31 -20 38 1 27 12 -7 22 -3 38 16 20 24 25 25 40 12 17 -14 17 -13 7 7 -7 12
-20 27 -30 32 -9 6 -13 11 -8 11 11 0 -24 40 -35 40 -4 0 -11 -5 -15 -11z m26
-33 c-6 -8 -18 -12 -26 -9 -19 7 -7 23 18 23 17 0 18 -3 8 -14z m-15 -36 c0
-22 -29 -18 -33 3 -3 14 1 18 15 15 10 -2 18 -10 18 -18z m502 -482 c-3 -8 -6
-5 -6 6 -1 11 2 17 5 13 3 -3 4 -12 1 -19z m-830 -180 c-3 -7 -5 -2 -5 12 0
14 2 19 5 13 2 -7 2 -19 0 -25z m78 2 c3 -5 -1 -10 -9 -10 -9 0 -16 5 -16 10
0 6 4 10 9 10 6 0 13 -4 16 -10z m-56 -188 c22 -21 -2 -39 -33 -24 -18 8 -27
8 -32 1 -4 -8 -9 -7 -15 2 -13 22 -11 29 14 38 24 9 45 4 66 -17z m105 -148
c5 -14 4 -15 -9 -4 -17 14 -19 20 -6 20 5 0 12 -7 15 -16z"/>
<path d="M5468 3393 c-9 -10 -23 -33 -32 -50 -14 -28 -14 -32 -1 -27 8 4 15
11 15 17 0 6 7 5 15 -4 13 -13 14 -24 6 -60 -6 -24 -11 -66 -11 -94 l0 -50 19
28 c11 18 20 24 23 16 6 -19 28 -1 28 23 0 18 -2 19 -16 7 -15 -12 -15 -10 -1
23 8 20 13 39 10 42 -13 13 -10 60 4 74 14 14 17 13 35 -11 11 -15 24 -27 30
-27 5 0 -5 20 -24 45 -32 44 -52 56 -54 35 -3 -21 -4 -21 -20 -6 -8 9 -12 20
-9 26 10 16 -1 12 -17 -7z"/>
<path d="M2620 3355 c-17 -21 -8 -28 15 -11 11 8 14 15 8 19 -6 4 -16 0 -23
-8z"/>
<path d="M7299 3328 c-37 -26 -38 -29 -23 -47 14 -15 27 -18 76 -15 41 3 69
-1 90 -12 30 -16 101 -15 116 1 7 7 -46 55 -60 55 -5 0 -8 -6 -8 -14 0 -21
-18 -24 -74 -9 -28 7 -58 10 -68 7 -19 -6 -24 11 -9 35 7 11 13 9 30 -8 23
-23 61 -27 92 -10 16 8 18 13 9 24 -7 8 -22 15 -34 15 -11 0 -39 1 -60 3 -30
2 -48 -4 -77 -25z"/>
<path d="M9460 3311 c-6 -12 -19 -21 -30 -21 -10 0 -22 -4 -25 -10 -8 -13 -5
-12 33 1 17 6 33 17 36 26 10 24 -1 27 -14 4z"/>
<path d="M2084 3278 c-20 -18 -42 -33 -48 -34 -6 0 -17 -2 -23 -2 -19 -3 -15
-30 5 -41 13 -7 22 -7 30 1 9 9 18 8 37 0 13 -6 30 -10 37 -8 7 1 10 1 6 -1
-4 -2 -4 -11 -1 -19 3 -10 22 -14 60 -14 46 0 54 3 51 18 -2 11 -16 19 -43 22
l-40 6 40 5 c22 3 60 2 84 -3 33 -6 47 -5 53 4 14 24 8 57 -13 68 -26 15 -34
7 -20 -18 9 -17 8 -22 -7 -26 -24 -8 -172 -4 -178 5 -2 4 0 17 4 29 l8 21 18
-20 c24 -26 53 -26 86 -1 28 21 19 41 -10 22 -13 -8 -21 -8 -25 -1 -4 6 -17 9
-28 7 -12 -1 -27 1 -34 5 -7 4 -27 -6 -49 -25z"/>
<path d="M7180 3290 c0 -5 5 -10 10 -10 6 0 10 5 10 10 0 6 -4 10 -10 10 -5 0
-10 -4 -10 -10z"/>
<path d="M9312 3280 c0 -14 2 -19 5 -12 2 6 2 18 0 25 -3 6 -5 1 -5 -13z"/>
<path d="M7360 3236 c0 -16 21 -26 55 -26 29 0 43 19 24 31 -23 14 -79 11 -79
-5z"/>
<path d="M9723 3216 c4 -9 2 -16 -3 -16 -6 0 -10 -7 -10 -15 0 -11 7 -14 24
-9 13 3 27 1 30 -5 4 -6 17 -16 29 -23 15 -7 9 3 -17 33 -43 48 -63 61 -53 35z"/>
<path d="M2032 3172 c-46 -15 43 -92 97 -84 l27 4 -25 27 c-30 31 -81 59 -99
53z"/>
<path d="M5790 3164 c0 -8 5 -12 10 -9 6 3 10 10 10 16 0 5 -4 9 -10 9 -5 0
-10 -7 -10 -16z"/>
<path d="M10074 3155 c3 -9 0 -15 -9 -15 -18 0 -18 -5 -5 -28 6 -9 21 -45 33
-80 13 -35 27 -63 32 -63 6 1 9 34 6 79 -2 61 -7 82 -24 100 -23 25 -42 29
-33 7z"/>
<path d="M5477 3121 c-9 -16 -16 -40 -16 -53 1 -20 2 -21 6 -3 3 11 14 31 24
44 11 13 19 28 19 32 0 18 -16 8 -33 -20z"/>
<path d="M6505 3141 c-7 -13 -89 -39 -145 -46 -71 -10 -62 -17 14 -10 38 3 83
12 100 19 33 14 66 46 48 46 -6 0 -13 -4 -17 -9z"/>
<path d="M10155 3119 c-4 -6 -6 -56 -4 -112 2 -64 -2 -113 -9 -131 -7 -16 -17
-52 -22 -80 -9 -50 -9 -50 -4 14 3 36 7 77 9 93 2 17 -2 27 -10 27 -7 0 -22
17 -32 37 -26 53 -47 57 -40 7 3 -22 13 -102 22 -179 19 -165 27 -190 36 -115
5 37 6 11 5 -77 -1 -129 -1 -131 16 -100 l16 32 7 -37 c4 -21 5 -76 2 -124 -3
-47 -3 -92 0 -100 7 -18 43 -18 43 -1 0 8 16 36 35 63 19 27 35 57 35 66 0 10
8 23 18 29 15 9 17 24 14 106 l-3 95 -42 -8 c-68 -12 -92 -11 -90 6 15 110 23
235 23 349 0 128 -7 169 -25 140z"/>
<path d="M5509 3110 c-3 -20 -4 -25 -13 -38 -4 -7 -6 -16 -3 -19 5 -4 37 49
37 62 0 9 -20 5 -21 -5z"/>
<path d="M5546 3102 c-2 -4 -1 -14 4 -22 7 -11 9 -9 7 8 -1 24 -3 26 -11 14z"/>
<path d="M3887 3083 c-11 -10 -8 -43 3 -43 6 0 10 11 10 25 0 26 -2 29 -13 18z"/>
<path d="M4368 3083 c-10 -2 -18 -11 -18 -19 0 -11 4 -10 20 3 17 15 26 26 18
22 -2 -1 -11 -3 -20 -6z"/>
<path d="M2071 3062 c7 -9 31 -34 54 -54 27 -26 35 -37 23 -38 -17 0 -50 -47
-63 -90 l-8 -25 22 20 c19 16 24 17 32 5 8 -11 9 -9 4 8 -5 18 -2 22 14 22 14
0 21 -6 21 -20 0 -17 2 -17 26 7 22 22 24 29 15 54 -10 28 -8 29 65 70 42 22
73 43 70 46 -2 2 -13 0 -23 -5 -34 -19 -87 -20 -106 -4 -15 13 -24 14 -48 5
-24 -9 -39 -9 -71 3 -38 13 -40 13 -27 -4z"/>
<path d="M8513 3059 c3 -9 -2 -30 -10 -48 -18 -37 -11 -51 14 -28 20 17 38 11
83 -27 21 -18 21 -17 -4 14 -16 19 -37 38 -48 42 -11 4 -17 12 -14 16 3 5 -2
18 -10 28 -12 14 -14 15 -11 3z"/>
<path d="M6827 3054 c-3 -3 -3 -12 0 -20 6 -16 33 -19 33 -4 0 6 -7 10 -16 10
-8 0 -12 5 -9 10 7 11 2 14 -8 4z"/>
<path d="M7325 3040 c-24 -9 -102 -100 -86 -100 5 0 12 4 15 9 6 9 76 21 76
13 0 -2 -9 -15 -20 -29 -23 -30 -19 -43 7 -22 9 8 14 9 10 3 -7 -13 17 -27 27
-17 3 4 6 17 6 30 0 16 6 23 20 23 11 0 20 3 20 7 0 7 -49 93 -53 92 -1 0 -11
-4 -22 -9z m12 -26 c-3 -3 -12 -4 -19 -1 -8 3 -5 6 6 6 11 1 17 -2 13 -5z m-2
-24 c3 -5 1 -10 -4 -10 -6 0 -11 5 -11 10 0 6 2 10 4 10 3 0 8 -4 11 -10z"/>
<path d="M8418 3028 c-8 -13 -18 -33 -22 -45 -7 -21 -4 -23 28 -24 20 -1 42
-2 49 -3 16 -1 10 36 -8 50 -11 8 -12 13 -2 24 9 10 9 11 -2 5 -7 -4 -16 -2
-21 4 -5 9 -12 5 -22 -11z"/>
<path d="M5466 3017 c3 -10 9 -15 12 -12 3 3 0 11 -7 18 -10 9 -11 8 -5 -6z"/>
<path d="M9073 2988 c6 -20 16 -38 22 -38 18 -3 15 15 -10 45 l-25 30 13 -37z"/>
<path d="M9917 3013 c-4 -6 0 -19 8 -29 11 -15 14 -16 15 -4 0 21 -16 44 -23
33z"/>
<path d="M8930 3001 c0 -5 13 -12 29 -16 16 -3 35 -13 42 -21 6 -8 18 -14 26
-14 11 0 11 4 3 21 -7 11 -14 18 -17 15 -3 -3 -21 1 -40 9 -42 18 -43 18 -43
6z"/>
<path d="M5490 2989 c0 -5 5 -7 10 -4 6 3 10 8 10 11 0 2 -4 4 -10 4 -5 0 -10
-5 -10 -11z"/>
<path d="M5514 2976 c-3 -8 -2 -28 3 -43 8 -23 17 -29 49 -33 25 -3 38 -10 36
-18 -1 -8 2 -11 8 -7 13 8 13 27 -1 62 -10 27 -11 27 -24 9 -13 -18 -14 -17
-10 12 4 39 -5 41 -28 5 -15 -23 -17 -24 -12 -6 7 25 -12 42 -21 19z"/>
<path d="M2894 2936 c-9 -15 -14 -29 -12 -32 3 -2 13 7 22 22 10 14 15 28 13
31 -3 2 -13 -7 -23 -21z"/>
<path d="M7475 2950 c-3 -6 1 -7 9 -4 18 7 21 14 7 14 -6 0 -13 -4 -16 -10z"/>
<path d="M7850 2935 c23 -25 50 -33 50 -16 0 11 -45 41 -61 41 -7 0 -2 -11 11
-25z"/>
<path d="M8458 2890 c-14 -43 -14 -50 -2 -50 12 0 12 -4 4 -20 -15 -28 1 -24
23 5 10 14 15 30 12 36 -4 5 -1 16 5 24 7 9 8 15 2 15 -5 0 -9 7 -8 16 3 38
-20 20 -36 -26z"/>
<path d="M7612 2865 c-7 -25 -12 -63 -12 -85 0 -22 -4 -40 -10 -40 -5 0 -10
10 -10 23 0 29 -37 90 -50 82 -7 -4 -7 -13 0 -25 6 -10 17 -53 25 -96 8 -42
20 -83 26 -90 7 -8 7 -14 1 -14 -5 0 -15 7 -22 15 -7 8 -18 15 -25 15 -9 0 -6
-17 10 -57 12 -32 25 -74 28 -93 6 -34 5 -34 -15 10 -11 25 -35 87 -54 139
-32 91 -48 116 -67 104 -5 -3 -3 5 4 18 7 13 12 27 11 32 -1 4 2 7 7 7 5 0 12
7 15 16 6 16 0 14 -44 -17 -14 -11 -51 -20 -87 -23 -34 -3 -74 -8 -88 -12 -32
-8 -33 9 0 30 27 18 33 36 11 36 -7 0 -16 -8 -20 -17 -3 -10 -11 -25 -17 -34
-10 -13 -7 -23 14 -51 91 -118 91 -247 2 -321 -37 -31 -45 -44 -45 -72 0 -19
5 -37 12 -41 6 -4 8 -3 5 2 -3 6 -2 16 4 24 7 13 9 12 9 -2 0 -10 5 -18 10
-18 6 0 10 5 10 10 0 6 8 10 18 10 9 0 13 4 7 8 -5 4 -16 17 -22 29 -11 19
-10 24 9 37 21 15 38 13 38 -5 0 -19 76 -89 97 -89 12 0 25 -5 28 -10 4 -6 16
-8 27 -5 14 5 21 1 25 -13 3 -15 16 -21 54 -25 64 -8 69 -12 69 -52 0 -26 3
-33 15 -29 9 4 15 0 15 -10 0 -22 16 -20 41 5 l21 21 -7 -21 c-7 -24 10 -29
19 -5 3 9 13 14 20 11 19 -8 26 13 18 52 l-7 32 -18 -31 c-24 -40 -41 -34 -47
16 l-5 39 -12 -33 c-13 -36 -36 -39 -41 -6 -2 14 -1 16 6 6 7 -11 11 -10 16 4
8 20 8 19 -22 28 -15 5 -24 3 -28 -8 -3 -9 -10 -16 -16 -16 -5 0 -6 5 -2 12 5
8 2 9 -9 5 -9 -3 -19 -2 -22 3 -8 13 42 43 59 37 8 -3 29 5 47 19 18 13 39 24
46 24 7 0 13 5 13 10 0 6 -21 10 -46 10 -40 0 -45 2 -39 18 4 9 9 32 12 50 3
18 12 32 19 32 8 0 14 5 14 10 0 6 -4 10 -9 10 -16 0 -21 44 -9 80 6 19 21 62
34 95 13 33 28 80 34 105 7 25 18 55 25 67 12 18 12 22 0 27 -10 3 -12 0 -8
-11 4 -11 3 -14 -5 -9 -7 4 -24 -2 -39 -14 -31 -24 -43 -14 -43 38 0 46 -14
40 -28 -13z m-202 -99 c0 -2 -7 -22 -15 -45 -8 -23 -14 -45 -13 -49 1 -4 -6
-9 -16 -10 -11 -3 -17 1 -14 8 4 14 -44 70 -61 70 -6 0 -11 5 -11 11 0 8 17
10 50 7 28 -3 53 -1 56 3 5 9 24 13 24 5z m-33 -140 c5 7 9 -27 10 -75 1 -47
6 -106 12 -131 13 -59 7 -62 -18 -9 -23 48 -44 136 -45 187 -1 17 -4 32 -8 32
-4 0 -5 7 -2 15 5 12 10 10 25 -8 13 -15 21 -18 26 -11z"/>
<path d="M7296 2882 c-4 -7 -11 -10 -15 -8 -4 3 -13 1 -20 -3 -9 -6 -10 -11
-2 -15 6 -4 11 -1 11 6 0 9 3 9 10 -2 11 -18 35 0 28 21 -3 10 -6 10 -12 1z"/>
<path d="M2133 2843 c-3 -10 -8 -22 -10 -28 -3 -5 3 -1 11 9 16 20 21 36 11
36 -3 0 -8 -8 -12 -17z"/>
<path d="M5600 2833 c-11 -23 -14 -25 -17 -10 -3 9 -8 17 -13 17 -4 0 -3 -13
3 -30 15 -39 21 -38 35 7 14 45 10 53 -8 16z"/>
<path d="M7168 2832 c-15 -6 -13 -10 11 -23 28 -17 29 -16 34 7 4 25 -9 30
-45 16z"/>
<path d="M4852 2814 c-5 -11 -12 -66 -16 -124 -7 -123 -15 -224 -21 -261 -4
-24 1 -27 90 -57 103 -35 123 -39 107 -19 -13 16 -32 130 -32 191 0 33 -3 45
-12 40 -8 -5 -9 -2 -3 12 4 10 10 30 12 44 5 24 4 24 -17 -5 -13 -17 -19 -21
-15 -10 5 11 8 28 9 37 0 9 4 16 9 15 5 -1 11 9 13 22 4 20 -2 16 -32 -22 -39
-50 -55 -63 -28 -22 8 13 12 30 8 36 -5 8 -3 9 6 4 8 -5 11 -3 8 6 -3 8 -11
13 -17 11 -7 -1 -9 7 -5 23 4 15 2 25 -5 25 -6 0 -11 -5 -11 -12 0 -6 -3 -9
-6 -6 -3 4 -1 15 5 26 14 27 2 36 -22 15 -19 -18 -20 -17 -8 6 9 15 10 26 3
33 -7 7 -13 4 -20 -8z"/>
<path d="M2111 2781 c-13 -10 -21 -24 -19 -32 3 -8 1 -23 -5 -33 -5 -11 -15
-45 -21 -76 -11 -54 -11 -56 8 -55 28 2 63 50 48 67 -8 10 -3 24 19 56 34 50
35 52 11 47 -15 -3 -18 2 -14 21 5 29 4 29 -27 5z m-8 -87 c-10 -19 -19 -31
-21 -25 -3 9 26 61 34 61 2 0 -4 -16 -13 -36z"/>
<path d="M3216 2777 c3 -10 9 -15 12 -12 3 3 0 11 -7 18 -10 9 -11 8 -5 -6z"/>
<path d="M2150 2690 c-8 -5 -12 -12 -9 -15 4 -3 12 1 19 10 14 17 11 19 -10 5z"/>
<path d="M8423 2648 c-1 -62 4 -73 27 -55 17 13 60 71 60 81 0 17 -18 1 -44
-39 -34 -55 -45 -53 -18 4 11 23 16 44 11 47 -5 3 -12 -3 -16 -13 -6 -16 -8
-15 -13 7 -4 16 -7 4 -7 -32z"/>
<path d="M9074 2629 c-15 -29 -15 -31 0 -26 13 5 16 -1 16 -36 1 -41 1 -42 15
-17 20 34 20 110 0 110 -8 0 -22 -14 -31 -31z"/>
<path d="M2122 2607 c-12 -13 -22 -29 -22 -37 0 -7 -7 -18 -17 -25 -10 -7 -12
-14 -6 -18 12 -8 56 46 67 81 9 28 5 28 -22 -1z"/>
<path d="M5640 2627 c0 -14 29 -69 30 -56 0 20 20 29 63 30 27 0 29 2 12 8
-26 11 -105 24 -105 18z"/>
<path d="M2138 2573 c-20 -23 -43 -66 -40 -75 1 -5 -3 -8 -10 -8 -6 0 -8 -3
-5 -7 4 -3 18 4 32 17 14 13 25 18 25 12 0 -6 -4 -14 -10 -17 -13 -8 -13 -35
-1 -35 14 0 51 64 51 86 -1 18 -1 18 -15 0 -17 -23 -19 -17 -5 18 11 30 0 34
-22 9z"/>
<path d="M2057 2563 c-4 -3 -7 -11 -7 -17 0 -6 5 -5 12 2 6 6 9 14 7 17 -3 3
-9 2 -12 -2z"/>
<path d="M8424 2515 c1 -54 1 -54 18 -32 22 28 24 10 2 -21 -8 -12 -13 -30
-11 -40 3 -12 5 -11 6 6 0 13 5 21 10 17 6 -3 15 3 21 12 8 15 9 13 4 -11 -6
-26 -5 -27 14 -17 18 10 21 9 16 -4 -4 -8 -2 -21 4 -28 6 -7 9 -26 8 -42 l-4
-29 19 23 c25 30 24 17 -1 -24 -25 -40 -11 -64 43 -72 42 -5 45 3 25 72 -15
52 -15 52 -17 71 0 8 -5 12 -11 9 -5 -3 -10 3 -10 14 0 12 -4 21 -10 21 -5 0
-10 7 -10 15 0 8 -4 15 -10 15 -5 0 -10 7 -10 16 0 10 -5 14 -15 10 -11 -4
-15 0 -13 12 2 12 -3 16 -16 14 -12 -2 -15 1 -11 8 5 9 1 10 -14 5 -16 -5 -20
-3 -15 8 3 8 1 18 -4 21 -6 3 -9 -17 -8 -49z m126 -226 c0 -15 -18 -19 -23 -6
-3 8 1 14 9 14 8 0 14 -4 14 -8z"/>
<path d="M4526 2522 c-9 -16 6 -104 16 -94 14 14 15 94 1 99 -6 2 -14 0 -17
-5z"/>
<path d="M2045 2500 c-4 -6 -9 -60 -13 -120 l-7 -110 87 0 88 0 0 60 c0 33 -3
60 -6 60 -3 0 -16 -13 -29 -28 -26 -31 -57 -39 -47 -13 5 14 4 14 -13 1 -12
-10 -16 -10 -11 -2 4 7 2 19 -4 27 -7 8 -10 22 -6 30 3 9 -1 18 -9 21 -7 3
-11 12 -8 20 3 8 0 14 -6 14 -7 0 -9 9 -5 25 6 25 0 33 -11 15z m131 -188
c-17 -16 -18 -16 -5 5 7 12 15 20 18 17 3 -2 -3 -12 -13 -22z"/>
<path d="M2158 2475 c-25 -36 -28 -73 -4 -58 6 4 3 -5 -7 -20 -10 -16 -17 -36
-15 -45 2 -13 10 -8 31 20 24 31 28 44 25 89 l-3 52 -27 -38z"/>
<path d="M6890 2475 c0 -11 8 -29 17 -40 15 -19 15 -19 8 10 -8 37 -25 57 -25
30z"/>
<path d="M6610 2440 c-8 -5 -10 -10 -5 -10 6 0 17 5 25 10 8 5 11 10 5 10 -5
0 -17 -5 -25 -10z"/>
<path d="M7997 2405 c6 -55 21 -101 29 -93 2 3 -4 36 -15 74 -20 66 -20 67
-14 19z"/>
<path d="M1449 2423 c-25 -15 -59 -61 -59 -80 0 -4 9 7 20 25 11 18 34 41 52
52 18 11 29 20 23 20 -5 0 -22 -8 -36 -17z"/>
<path d="M1560 2436 c0 -2 8 -10 18 -17 15 -13 16 -12 3 4 -13 16 -21 21 -21
13z"/>
<path d="M4224 2412 c-7 -35 -37 -70 -99 -114 l-38 -28 136 0 c76 0 137 4 137
9 0 5 17 12 38 16 20 4 31 10 23 13 -7 2 -30 -1 -50 -8 -31 -10 -43 -9 -73 3
-32 13 -36 20 -42 63 -9 68 -23 89 -32 46z"/>
<path d="M5524 2430 c-18 -7 -21 -14 -15 -41 6 -28 12 -34 40 -40 41 -9 64
-30 55 -52 -9 -24 -45 -31 -120 -24 -35 4 -66 3 -68 -2 -7 -11 353 -20 424
-11 30 4 49 8 42 9 -8 0 -11 8 -7 20 4 14 -1 20 -22 24 -32 7 -79 27 -143 63
-28 16 -71 28 -115 33 -38 5 -60 9 -47 10 13 0 20 6 17 11 -7 12 -13 12 -41 0z"/>
<path d="M6645 2420 c3 -6 -4 -14 -17 -19 l-23 -10 23 0 c12 -1 22 4 22 10 0
8 6 7 18 -2 14 -11 13 -10 -2 9 -20 23 -32 30 -21 12z"/>
<path d="M1610 2400 c0 -5 5 -10 11 -10 5 0 7 5 4 10 -3 6 -8 10 -11 10 -2 0
-4 -4 -4 -10z"/>
<path d="M6940 2379 c0 -5 5 -7 10 -4 6 3 10 8 10 11 0 2 -4 4 -10 4 -5 0 -10
-5 -10 -11z"/>
<path d="M5440 2370 c0 -5 15 -10 33 -10 24 0 28 3 17 10 -20 13 -50 13 -50 0z"/>
<path d="M6680 2364 c0 -8 5 -12 10 -9 6 4 8 11 5 16 -9 14 -15 11 -15 -7z"/>
<path d="M8431 2354 c0 -11 3 -14 6 -6 3 7 2 16 -1 19 -3 4 -6 -2 -5 -13z"/>
<path d="M8449 2339 c-11 -21 4 -35 18 -16 20 25 22 34 7 34 -8 0 -19 -8 -25
-18z"/>
<path d="M6700 2341 c0 -5 7 -15 17 -22 15 -13 15 -12 4 9 -12 23 -21 28 -21
13z"/>
<path d="M7720 2335 c0 -8 12 -17 28 -20 15 -4 34 -10 43 -15 9 -5 26 -6 38
-3 15 4 23 -1 30 -19 8 -22 14 -24 85 -26 67 -1 76 1 76 17 0 22 -24 30 -60
21 -16 -4 -60 5 -124 27 -114 38 -116 38 -116 18z"/>
<path d="M1496 2304 c-4 -10 5 -29 24 -50 33 -39 39 -57 13 -47 -11 4 -14 3
-9 -5 4 -7 5 -12 3 -12 -10 0 -41 56 -40 72 2 26 -16 32 -38 12 -19 -17 -26
-49 -11 -56 4 -1 20 -20 36 -42 22 -29 31 -35 37 -25 7 11 11 8 15 -10 8 -28
84 -67 96 -48 5 8 12 6 26 -6 19 -17 20 -17 25 4 7 25 -12 59 -29 52 -6 -2
-15 1 -20 8 -5 8 -3 10 7 4 11 -6 12 -5 2 6 -7 7 -13 21 -13 30 0 23 -29 47
-39 31 -4 -7 -11 -4 -20 11 -13 20 -13 21 2 8 11 -9 17 -10 17 -2 0 6 -4 11
-8 11 -5 0 -17 7 -28 16 -10 8 -13 13 -6 9 17 -9 15 -2 -7 23 -22 26 -27 27
-35 6z m-4 -108 c11 -20 10 -20 -8 -6 -23 18 -34 32 -34 44 0 13 29 -14 42
-38z m98 -41 c17 -21 5 -51 -14 -35 -14 11 -18 50 -5 50 4 0 12 -7 19 -15z"/>
<path d="M1583 2309 c7 -23 121 -199 129 -199 15 0 -5 65 -23 79 -11 8 -19 26
-19 43 0 22 -4 29 -14 25 -9 -4 -27 9 -46 31 -18 20 -29 30 -27 21z"/>
<path d="M4602 2303 c-14 -7 -30 -12 -36 -11 -16 3 -78 -13 -73 -19 3 -3 49
-8 102 -13 59 -5 105 -14 120 -24 31 -20 33 -6 4 20 -12 10 -25 29 -30 41 -10
26 -44 28 -87 6z"/>
<path d="M6480 2303 c0 -10 7 -28 15 -39 14 -18 14 -18 15 4 0 12 7 25 15 28
8 4 15 10 15 15 0 5 -7 9 -15 9 -8 0 -15 -5 -15 -11 0 -8 -5 -8 -15 1 -12 10
-15 9 -15 -7z"/>
<path d="M8480 2310 c0 -5 5 -10 11 -10 5 0 7 5 4 10 -3 6 -8 10 -11 10 -2 0
-4 -4 -4 -10z"/>
<path d="M8063 2303 c-24 -5 -30 -18 -13 -28 5 -3 7 -12 3 -21 -3 -9 9 -28 33
-50 29 -25 40 -30 42 -19 4 19 22 20 22 1 0 -19 27 -28 34 -11 3 8 12 12 21 9
10 -4 15 0 15 12 1 16 3 15 15 -6 11 -19 14 -21 15 -7 0 9 5 17 10 17 18 0 11
35 -9 47 -11 7 -21 23 -23 35 -4 31 -22 25 -26 -9 -6 -42 -26 -49 -32 -10 -4
24 -10 32 -25 32 -14 0 -20 -7 -20 -25 0 -15 -6 -25 -15 -25 -8 0 -18 -4 -21
-9 -4 -4 -10 -3 -13 3 -4 6 -3 11 2 11 5 0 9 14 8 30 0 17 -1 29 -1 29 0 -1
-10 -4 -22 -6z"/>
<path d="M8265 2288 c9 -28 25 -47 25 -29 0 7 4 9 10 6 6 -4 7 2 1 17 -4 13
-16 25 -26 26 -14 3 -16 -1 -10 -20z"/>
<path d="M1686 2286 c3 -9 11 -16 16 -16 13 0 5 23 -10 28 -7 2 -10 -2 -6 -12z"/>
<path d="M3267 2280 c19 -22 26 -21 17 4 -3 9 -12 16 -20 16 -11 0 -10 -4 3
-20z"/>
<path d="M4941 2284 c-1 -11 8 -29 19 -39 28 -26 26 -55 -4 -55 -25 0 -44 18
-63 59 -11 24 -11 25 -12 4 -1 -12 3 -24 8 -27 5 -3 14 -20 20 -37 10 -28 9
-30 -11 -23 -24 7 -57 42 -58 61 0 14 -37 11 -68 -6 -19 -10 -21 -15 -12 -26
10 -12 14 -12 27 1 14 14 19 12 50 -18 19 -18 48 -53 64 -78 26 -40 34 -45 67
-45 29 0 36 -4 34 -16 -1 -10 7 -19 20 -22 12 -4 22 -5 23 -4 0 1 9 18 19 37
17 30 17 33 3 21 -18 -14 -22 -5 -8 18 5 7 13 11 18 8 11 -7 86 103 77 112 -4
3 -9 1 -11 -6 -2 -7 -14 -27 -27 -45 -22 -33 -41 -40 -41 -15 0 6 -9 15 -20
18 -11 3 -19 11 -17 18 1 7 -6 21 -18 31 -11 9 -20 25 -20 34 0 9 -8 16 -18
16 -11 0 -24 10 -30 23 -10 21 -11 21 -11 1z m49 -129 c0 -8 -4 -15 -10 -15
-5 0 -10 7 -10 15 0 8 5 15 10 15 6 0 10 -7 10 -15z m-26 -41 c3 -8 2 -12 -4
-9 -6 3 -10 10 -10 16 0 14 7 11 14 -7z m84 -16 c-2 -12 -8 -23 -14 -25 -7 -2
-10 6 -7 22 6 30 26 34 21 3z"/>
<path d="M5020 2279 c11 -20 12 -20 31 -3 25 23 24 24 -11 24 -28 0 -30 -2
-20 -21z"/>
<path d="M7266 2292 c-5 -9 -20 -12 -37 -10 -23 4 -29 1 -29 -14 0 -14 8 -18
34 -18 22 0 36 -6 40 -16 4 -9 9 -14 12 -11 4 3 13 -1 22 -9 23 -24 39 -1 22
31 -7 14 -16 21 -20 16 -8 -14 -27 0 -32 24 -3 15 -5 17 -12 7z"/>
<path d="M3070 2282 c0 -5 -7 -9 -15 -10 -8 -1 -22 -3 -30 -4 -25 -2 -17 -15
21 -33 40 -19 54 -14 33 12 -13 16 -12 17 4 4 10 -8 16 -19 13 -26 -2 -6 5
-22 15 -36 12 -15 19 -19 19 -10 0 10 6 8 21 -8 19 -21 22 -21 33 -5 9 12 15
14 20 6 10 -17 26 -15 26 3 0 8 5 15 10 15 6 0 10 12 10 26 0 20 -4 25 -17 20
-16 -6 -16 -6 0 12 23 25 22 27 -15 26 -81 -3 -79 -3 -68 -24 6 -11 16 -17 25
-14 8 4 15 1 15 -5 0 -27 -37 -9 -54 26 -12 26 -20 33 -25 24 -6 -9 -11 -10
-15 -2 -8 13 -26 15 -26 3z"/>
<path d="M6658 2265 c5 -29 -2 -31 -41 -10 -29 15 -28 5 2 -26 12 -12 20 -13
34 -5 15 9 21 6 37 -14 16 -20 20 -22 20 -7 0 21 8 22 32 0 17 -15 18 -15 18
9 0 28 -21 43 -38 26 -7 -7 -17 0 -33 21 -28 38 -38 39 -31 6z"/>
<path d="M2640 2270 c0 -5 7 -10 16 -10 8 0 12 5 9 10 -3 6 -10 10 -16 10 -5
0 -9 -4 -9 -10z"/>
<path d="M2760 2276 c0 -2 7 -7 16 -10 8 -3 12 -2 9 4 -6 10 -25 14 -25 6z"/>
<path d="M4443 2273 c9 -2 23 -2 30 0 6 3 -1 5 -18 5 -16 0 -22 -2 -12 -5z"/>
<path d="M8960 2266 c0 -8 7 -16 15 -20 10 -4 15 1 15 14 0 11 -7 20 -15 20
-8 0 -15 -6 -15 -14z"/>
<path d="M9280 2255 c0 -16 -6 -25 -15 -25 -8 0 -15 -3 -15 -6 0 -11 31 -36
37 -30 3 3 13 -3 20 -14 8 -11 20 -20 26 -19 31 4 47 -2 47 -17 0 -14 2 -15
17 -3 9 8 19 13 22 11 3 -2 8 4 11 14 6 15 8 15 13 -6 5 -20 8 -21 21 -10 22
18 20 46 -5 63 -17 12 -19 19 -10 35 15 28 14 31 -8 25 -15 -4 -21 -15 -23
-45 -3 -35 -5 -38 -19 -26 -20 15 -38 65 -20 54 6 -4 11 -3 11 2 0 11 -36 23
-44 14 -3 -3 -6 -16 -6 -28 0 -38 -19 -38 -35 0 -18 42 -25 45 -25 11z"/>
<path d="M9974 2265 c-15 -29 -3 -80 19 -81 18 -2 24 34 8 52 -5 5 -11 18 -13
29 l-4 20 -10 -20z"/>
<path d="M7362 2246 c-19 -43 -14 -56 15 -38 8 5 10 17 5 36 l-8 28 -12 -26z"/>
<path d="M9480 2260 c0 -5 5 -10 11 -10 5 0 7 5 4 10 -3 6 -8 10 -11 10 -2 0
-4 -4 -4 -10z"/>
<path d="M9891 2257 c-9 -11 -10 -17 -2 -17 6 0 11 -16 11 -35 0 -28 4 -35 20
-35 23 0 26 22 6 40 -8 6 -16 23 -18 37 -3 24 -4 25 -17 10z"/>
<path d="M10047 2263 c-12 -11 -8 -21 13 -26 22 -6 23 -5 14 17 -7 17 -16 20
-27 9z"/>
<path d="M2346 2236 c-9 -14 -16 -30 -16 -36 0 -5 -7 -10 -15 -10 -18 0 -21
-85 -3 -96 8 -5 9 0 6 14 -4 12 -2 22 3 22 5 0 9 -7 9 -15 0 -23 16 -18 28 10
16 34 15 45 -3 45 -8 0 -15 -5 -15 -12 0 -6 -3 -9 -6 -5 -3 3 4 27 15 53 24
53 22 68 -3 30z"/>
<path d="M6530 2256 c0 -2 7 -7 16 -10 8 -3 12 -2 9 4 -6 10 -25 14 -25 6z"/>
<path d="M7780 2238 c-12 -22 -12 -22 6 -6 10 10 15 20 12 24 -4 3 -12 -5 -18
-18z"/>
<path d="M8865 2250 c3 -5 10 -10 16 -10 5 0 9 5 9 10 0 6 -7 10 -16 10 -8 0
-12 -4 -9 -10z"/>
<path d="M6997 2243 c-2 -5 -7 -25 -11 -45 -7 -41 -26 -61 -26 -29 0 12 -4 21
-10 21 -16 0 -32 -41 -26 -66 4 -13 2 -24 -3 -24 -5 0 -11 -11 -14 -25 -3 -18
1 -29 14 -36 11 -5 19 -16 19 -24 0 -21 16 -19 39 4 16 16 20 17 25 5 5 -13 9
-12 31 2 23 15 25 21 20 63 -4 31 -3 41 3 32 5 -7 15 -10 21 -7 16 11 13 26
-5 26 -17 0 -16 33 1 73 4 9 3 17 -3 17 -5 0 -13 -15 -16 -34 -4 -19 -14 -43
-24 -53 -9 -11 -13 -14 -9 -7 9 14 -8 28 -23 19 -12 -7 -4 37 11 67 5 9 9 19
9 22 0 9 -18 7 -23 -1z m-44 -138 c-3 -9 -8 -14 -10 -11 -3 3 -2 9 2 15 9 16
15 13 8 -4z m67 -15 c0 -8 -5 -22 -10 -30 -9 -13 -11 -13 -20 0 -17 26 -12 49
10 47 11 -1 20 -8 20 -17z"/>
<path d="M2402 2176 c-21 -41 -32 -77 -31 -102 0 -21 3 -33 6 -26 2 6 9 10 14
6 5 -3 9 2 9 10 0 9 -5 16 -11 16 -8 0 -7 5 1 15 11 13 15 13 22 3 6 -10 10
-10 18 2 11 17 13 50 3 50 -3 0 -15 -8 -26 -17 -14 -13 -11 -2 12 42 34 66 34
65 23 65 -4 0 -22 -29 -40 -64z"/>
<path d="M5070 2218 c0 -19 2 -20 10 -8 13 19 13 30 0 30 -5 0 -10 -10 -10
-22z"/>
<path d="M5990 2232 c0 -8 -8 -10 -25 -6 -28 7 -30 2 -14 -27 5 -11 14 -17 19
-14 6 3 7 0 5 -7 -3 -8 8 -24 26 -37 17 -12 35 -36 41 -53 8 -22 13 -26 19
-17 6 11 11 10 24 -6 14 -19 16 -19 26 -2 8 15 14 16 25 6 27 -22 59 42 33 68
-8 8 -8 13 0 17 16 10 13 36 -4 36 -7 0 -19 8 -24 18 -8 13 -10 5 -11 -35 0
-37 -4 -53 -13 -53 -22 0 -27 11 -12 27 20 20 19 33 -4 33 -11 0 -22 10 -26
23 -6 19 -8 20 -12 4 -7 -26 -45 -18 -60 13 -7 14 -12 19 -13 12z m70 -82 c0
-22 -24 -27 -36 -8 -5 8 -2 9 9 5 11 -4 17 -1 17 8 0 8 2 15 5 15 3 0 5 -9 5
-20z"/>
<path d="M2495 2218 c-25 -67 -44 -132 -41 -135 6 -6 56 43 56 55 0 6 -5 12
-12 14 -8 3 -5 14 10 35 20 28 20 43 0 43 -5 0 -11 -6 -13 -12z"/>
<path d="M3911 2207 c-21 -57 -22 -67 -8 -67 18 0 29 24 21 45 -4 9 0 15 10
15 20 0 21 16 1 24 -10 4 -19 -2 -24 -17z"/>
<path d="M7118 2170 c-9 -36 -19 -73 -23 -82 -4 -11 -3 -18 4 -18 18 0 51 39
45 54 -3 8 -1 17 5 21 6 3 11 11 11 16 0 6 -4 8 -9 4 -6 -3 -11 12 -13 32 -3
36 -4 35 -20 -27z"/>
<path d="M3750 2164 c0 -37 4 -54 15 -58 8 -3 15 -14 15 -24 0 -22 40 -25 53
-4 4 6 15 12 22 12 9 0 15 10 15 25 0 14 -4 25 -10 25 -5 0 -10 9 -10 19 0 11
6 18 16 17 26 -2 27 21 2 27 -14 4 -26 1 -31 -8 -8 -16 -37 -9 -37 9 0 6 -11
11 -25 11 -23 0 -25 -3 -25 -51z"/>
<path d="M5213 2178 c-18 -24 -24 -38 -16 -38 10 0 36 40 30 46 -2 3 -9 -1
-14 -8z"/>
<path d="M4799 2143 c24 -42 49 -65 74 -67 15 -2 27 -1 27 1 0 12 -53 72 -60
68 -5 -3 -11 -1 -15 5 -3 5 -13 10 -21 10 -11 0 -12 -4 -5 -17z"/>
<path d="M5202 2108 c5 -15 28 -23 28 -10 0 5 -7 13 -16 16 -10 4 -14 1 -12
-6z"/>
<path d="M5109 2089 c-9 -17 -8 -20 3 -13 7 4 1 -5 -14 -21 -33 -33 -34 -41
-8 -48 21 -5 40 17 40 46 0 8 7 17 15 21 8 3 15 12 15 21 0 23 -38 18 -51 -6z"/>
<path d="M5182 2070 c-16 -26 -15 -30 7 -30 23 0 34 25 17 39 -8 7 -15 4 -24
-9z"/>
<path d="M2330 2070 c0 -5 5 -10 11 -10 5 0 7 5 4 10 -3 6 -8 10 -11 10 -2 0
-4 -4 -4 -10z"/>
<path d="M6110 1775 c-20 -25 -8 -50 25 -50 21 0 31 5 33 18 4 21 -14 47 -33
47 -7 0 -18 -7 -25 -15z"/>
<path d="M6380 1730 c0 -64 -1 -66 -32 -49 -34 18 -86 2 -108 -34 -38 -61 -20
-180 29 -207 28 -14 63 -12 88 5 19 13 22 13 27 0 3 -8 17 -15 31 -15 l25 0 0
180 0 180 -30 0 -30 0 0 -60z m-22 -106 c18 -12 22 -25 22 -64 0 -76 -51 -108
-86 -55 -21 32 -13 103 12 122 22 16 25 16 52 -3z"/>
<path d="M6993 1683 c4 -58 7 -137 7 -175 l0 -68 30 0 30 0 0 175 0 175 -37 0
-36 0 6 -107z"/>
<path d="M4800 1720 c0 -57 -1 -60 -19 -50 -11 5 -32 10 -46 10 -66 0 -99 -52
-93 -143 4 -52 9 -64 36 -88 36 -32 67 -36 99 -14 14 10 24 12 28 5 3 -5 17
-10 31 -10 l24 0 0 175 0 175 -30 0 -30 0 0 -60z m-19 -100 c15 -9 19 -21 19
-63 0 -59 -6 -72 -36 -81 -33 -10 -59 27 -58 82 1 60 31 85 75 62z"/>
<path d="M5770 1759 c0 -6 25 -83 56 -170 l57 -160 36 3 36 3 57 168 57 167
-38 0 -38 0 -33 -112 c-42 -145 -44 -148 -59 -96 -7 24 -24 80 -37 126 l-25
82 -35 0 c-19 0 -34 -5 -34 -11z"/>
<path d="M3550 1591 l0 -171 35 0 34 0 3 110 3 110 66 -108 c59 -96 69 -107
97 -110 l32 -3 0 170 0 171 -30 0 -30 0 0 -107 c0 -125 1 -125 -81 10 -52 87
-57 92 -92 95 l-37 3 0 -170z"/>
<path d="M5473 1682 c-31 -10 -63 -39 -63 -57 0 -20 53 -20 70 0 18 21 47 19
60 -5 16 -30 4 -40 -46 -40 -81 0 -124 -78 -71 -128 25 -24 75 -29 108 -12 13
7 19 7 19 0 0 -5 15 -10 33 -10 l33 0 -4 103 c-3 88 -7 105 -25 124 -24 24
-79 36 -114 25z m75 -155 c8 -40 -51 -65 -77 -33 -10 12 -8 19 9 36 25 25 63
23 68 -3z"/>
<path d="M6784 1681 c-21 -9 -54 -48 -54 -63 0 -16 68 -8 74 8 9 24 60 14 64
-12 3 -18 -3 -22 -46 -28 -60 -8 -92 -35 -92 -79 0 -18 4 -37 8 -43 21 -32 96
-45 121 -21 11 10 14 10 18 0 3 -7 21 -13 40 -13 28 0 34 3 29 16 -3 9 -6 53
-6 99 0 73 -3 87 -23 110 -25 30 -94 43 -133 26z m86 -161 c0 -23 -5 -31 -25
-36 -24 -6 -55 9 -55 27 0 16 32 39 56 39 20 0 24 -5 24 -30z"/>
<path d="M7170 1683 c-26 -10 -50 -36 -50 -55 0 -23 55 -26 64 -3 7 18 47 20
64 3 22 -22 13 -38 -22 -38 -73 0 -116 -30 -116 -82 0 -59 74 -97 125 -64 14
9 25 12 25 6 0 -5 16 -10 36 -10 29 0 35 3 30 16 -3 9 -6 54 -6 100 0 77 -2
87 -25 109 -18 19 -34 25 -67 24 -24 0 -50 -3 -58 -6z m88 -160 c-4 -38 -53
-57 -74 -29 -21 29 -1 56 42 56 33 0 35 -2 32 -27z"/>
<path d="M7350 1686 c0 -2 20 -59 44 -127 46 -132 48 -169 6 -169 -17 0 -21
-5 -18 -27 3 -24 7 -28 32 -26 17 1 37 10 47 20 15 16 119 299 119 324 0 6
-14 9 -32 7 -30 -3 -34 -7 -53 -70 -12 -37 -24 -70 -27 -73 -3 -3 -15 28 -27
70 -22 74 -23 75 -57 75 -19 0 -34 -2 -34 -4z"/>
<path d="M7636 1669 c-14 -11 -26 -27 -26 -35 0 -19 54 -18 70 1 24 29 70 11
70 -27 0 -14 -8 -18 -40 -18 -54 0 -86 -17 -101 -53 -10 -24 -10 -34 2 -56 21
-37 63 -55 99 -43 15 6 46 8 68 5 l40 -5 -5 103 c-4 94 -7 106 -29 127 -34 30
-110 31 -148 1z m114 -144 c0 -18 -7 -28 -25 -35 -33 -13 -55 -3 -55 24 0 30
7 36 47 36 29 0 33 -3 33 -25z"/>
<path d="M3940 1673 c-24 -9 -60 -45 -60 -60 0 -19 66 -17 74 3 9 25 60 14 64
-13 3 -18 -1 -23 -20 -23 -86 0 -138 -49 -117 -109 17 -49 72 -66 122 -40 16
9 22 9 25 0 2 -6 18 -11 35 -11 l32 0 -5 105 c-5 89 -8 108 -27 126 -21 21
-93 35 -123 22z m80 -157 c0 -30 -22 -49 -52 -44 -49 7 -28 68 23 68 24 0 29
-4 29 -24z"/>
<path d="M4120 1667 c0 -7 17 -63 39 -123 38 -108 39 -109 72 -112 l34 -3 38
114 c20 63 37 120 37 126 0 8 -12 11 -32 9 -31 -3 -32 -6 -52 -80 -11 -43 -23
-78 -26 -78 -3 0 -15 35 -26 78 -20 74 -21 77 -52 80 -22 2 -32 -1 -32 -11z"/>
<path d="M4409 1652 c-27 -24 -33 -37 -36 -83 -3 -30 0 -66 6 -81 28 -72 140
-89 193 -29 24 27 28 40 28 92 0 56 -3 64 -34 95 -29 29 -41 34 -80 34 -36 0
-52 -6 -77 -28z m117 -47 c29 -45 3 -135 -38 -135 -5 0 -21 12 -35 26 -22 22
-25 32 -20 67 9 66 62 90 93 42z"/>
<path d="M4946 1659 c-14 -11 -26 -27 -26 -35 0 -19 49 -18 71 2 20 18 54 11
63 -12 9 -24 -2 -34 -40 -34 -106 0 -146 -113 -52 -148 32 -12 41 -12 67 1 17
9 31 11 31 6 0 -5 15 -9 33 -9 l32 0 -3 102 c-3 95 -5 105 -28 126 -34 30
-110 31 -148 1z m114 -138 c0 -18 -34 -51 -52 -51 -3 0 -14 7 -22 16 -25 25
-4 54 39 54 28 0 35 -4 35 -19z"/>
<path d="M5152 1667 c2 -7 21 -66 43 -130 43 -125 42 -148 -4 -155 -15 -2 -21
-10 -21 -28 0 -21 5 -24 35 -24 21 0 41 7 52 19 10 11 40 84 67 163 27 79 51
149 54 156 3 8 -7 12 -31 12 -35 0 -36 -1 -52 -57 -29 -106 -30 -106 -55 -20
-23 77 -23 77 -57 77 -23 0 -33 -4 -31 -13z"/>
<path d="M6102 1558 l3 -123 33 -3 32 -3 0 125 0 126 -35 0 -36 0 3 -122z"/>
<path d="M6480 1673 c0 -5 18 -60 41 -123 43 -123 44 -154 4 -164 -19 -5 -25
-13 -25 -32 0 -25 2 -26 37 -21 20 4 42 12 49 19 7 7 38 84 69 171 l55 158
-37 -3 c-37 -3 -38 -3 -59 -78 l-21 -75 -23 78 c-23 76 -23 77 -57 77 -18 0
-33 -3 -33 -7z"/>
<path d="M10198 1265 c-3 -22 -4 -130 -2 -240 1 -110 3 -226 3 -257 l1 -58 46
0 46 0 -6 38 c-3 20 -13 96 -21 167 -9 72 -23 161 -31 198 -8 38 -14 85 -15
105 -1 20 -4 48 -8 62 -7 22 -8 21 -13 -15z"/>
<path d="M6330 1220 c0 -13 -7 -20 -18 -20 -26 0 -42 -20 -42 -51 0 -32 16
-47 53 -47 27 0 27 1 27 69 0 39 -4 69 -10 69 -5 0 -10 -9 -10 -20z m-5 -70
c0 -13 -6 -25 -12 -27 -16 -6 -27 21 -19 43 9 23 31 11 31 -16z"/>
<path d="M6726 1231 c-4 -5 -2 -12 3 -15 5 -4 12 -2 15 3 4 5 2 12 -3 15 -5 4
-12 2 -15 -3z"/>
<path d="M7020 1225 c0 -8 5 -15 10 -15 6 0 10 7 10 15 0 8 -4 15 -10 15 -5 0
-10 -7 -10 -15z"/>
<path d="M7420 1221 c0 -12 -8 -21 -21 -23 -29 -4 -43 -29 -36 -60 8 -30 23
-38 60 -31 26 5 27 8 27 69 0 50 -3 64 -15 64 -8 0 -15 -9 -15 -19z m0 -71 c0
-20 -5 -30 -15 -30 -10 0 -15 10 -15 30 0 20 5 30 15 30 10 0 15 -10 15 -30z"/>
<path d="M7470 1230 c0 -5 5 -10 10 -10 6 0 10 5 10 10 0 6 -4 10 -10 10 -5 0
-10 -4 -10 -10z"/>
<path d="M4390 1165 c0 -37 4 -65 10 -65 6 0 10 28 10 65 0 37 -4 65 -10 65
-6 0 -10 -28 -10 -65z"/>
<path d="M4600 1214 c0 -8 5 -12 10 -9 6 3 10 10 10 16 0 5 -4 9 -10 9 -5 0
-10 -7 -10 -16z"/>
<path d="M5820 1165 c0 -69 17 -90 22 -27 2 25 8 37 18 37 10 0 16 -12 18 -37
4 -50 22 -49 22 1 0 42 -18 65 -44 55 -12 -4 -16 0 -16 15 0 12 -4 21 -10 21
-6 0 -10 -28 -10 -65z"/>
<path d="M6172 1168 l3 -63 34 -3 c18 -2 38 1 44 7 8 8 2 11 -21 11 -25 0 -32
4 -32 20 0 15 7 20 26 20 14 0 23 4 19 10 -3 6 -15 10 -26 10 -10 0 -19 7 -19
15 0 10 10 15 30 15 17 0 30 5 30 10 0 6 -20 10 -45 10 l-46 0 3 -62z"/>
<path d="M7210 1170 c0 -47 3 -60 15 -60 12 0 15 13 15 60 0 47 -3 60 -15 60
-12 0 -15 -13 -15 -60z"/>
<path d="M3833 1158 c-22 -64 -22 -87 1 -55 16 21 55 22 62 2 8 -19 24 -20 24
-1 0 24 -42 116 -54 116 -6 0 -21 -28 -33 -62z m47 -4 c0 -8 -6 -14 -14 -14
-9 0 -12 7 -9 20 6 22 23 18 23 -6z"/>
<path d="M3990 1160 c0 -33 4 -60 10 -60 6 0 10 9 10 20 0 11 6 20 14 20 8 0
18 -9 21 -20 3 -11 13 -20 21 -20 11 0 12 4 4 19 -7 14 -7 27 1 45 16 34 -3
56 -47 56 l-34 0 0 -60z m65 20 c0 -8 -10 -16 -22 -18 -18 -3 -23 2 -23 18 0
16 5 21 23 18 12 -2 22 -10 22 -18z"/>
<path d="M5161 1164 c-25 -66 -25 -64 -6 -64 8 0 15 7 15 15 0 21 40 19 56 -2
23 -32 25 -6 4 51 -12 31 -27 56 -34 56 -7 0 -23 -25 -35 -56z m49 -11 c0 -7
-7 -13 -15 -13 -16 0 -19 9 -9 35 5 13 8 14 15 3 5 -7 9 -19 9 -25z"/>
<path d="M5968 1203 c-8 -37 7 -98 25 -101 9 -2 17 1 17 7 0 6 -4 11 -10 11
-13 0 -13 47 0 55 6 4 5 13 -3 25 -15 25 -23 25 -29 3z"/>
<path d="M6662 1200 c-7 -12 -8 -20 -2 -20 5 0 10 -16 10 -35 0 -35 22 -57 38
-40 4 4 1 10 -5 12 -15 5 -18 63 -3 63 6 0 5 8 -2 20 -7 11 -15 20 -18 20 -3
0 -11 -9 -18 -20z"/>
<path d="M4538 1198 c-9 -26 4 -97 19 -103 21 -7 30 2 15 17 -16 16 -15 55 0
60 9 3 8 9 -4 21 -20 20 -24 21 -30 5z"/>
<path d="M5383 1193 c-21 -4 -23 -10 -23 -63 0 -59 17 -90 27 -51 3 12 13 21
24 21 19 0 39 27 39 54 0 15 -27 47 -38 45 -4 -1 -17 -4 -29 -6z m35 -46 c2
-19 -1 -27 -12 -27 -11 0 -16 10 -16 31 0 38 24 35 28 -4z"/>
<path d="M5488 1193 c-14 -4 -18 -15 -18 -49 0 -24 5 -44 10 -44 6 0 10 14 10
31 0 18 7 37 17 44 18 13 7 24 -19 18z"/>
<path d="M5548 1188 c-21 -18 -27 -39 -17 -65 9 -25 47 -31 67 -11 19 19 15
66 -7 78 -24 13 -24 13 -43 -2z m37 -39 c0 -15 -7 -25 -17 -27 -13 -3 -18 3
-18 21 0 13 3 27 7 31 13 12 28 -1 28 -25z"/>
<path d="M5643 1193 c-21 -8 -15 -25 6 -18 11 3 22 1 26 -5 3 -5 -1 -10 -9
-10 -8 0 -22 -7 -31 -16 -22 -22 -4 -42 38 -42 32 0 32 1 28 42 -4 50 -21 64
-58 49z m37 -63 c0 -5 -7 -10 -15 -10 -8 0 -15 5 -15 10 0 6 7 10 15 10 8 0
15 -4 15 -10z"/>
<path d="M5736 1184 c-19 -19 -20 -44 -3 -68 15 -20 58 -19 65 2 3 9 -3 11
-22 6 -24 -6 -26 -4 -26 25 0 33 8 39 28 19 17 -17 28 -2 12 17 -16 19 -34 19
-54 -1z"/>
<path d="M6036 1184 c-19 -18 -21 -55 -4 -72 29 -29 78 -3 78 42 0 18 -27 46
-45 46 -7 0 -21 -7 -29 -16z m42 -37 c2 -19 -1 -27 -13 -27 -19 0 -30 24 -21
46 9 23 31 11 34 -19z"/>
<path d="M6372 1153 c3 -48 3 -48 41 -50 l37 -1 0 49 c0 57 -17 66 -22 12 -2
-26 -8 -38 -18 -38 -10 0 -16 12 -18 38 -5 55 -24 45 -20 -10z"/>
<path d="M6482 1188 c-7 -7 -12 -24 -12 -38 0 -46 43 -67 71 -34 11 13 9 15
-16 12 -22 -2 -30 2 -33 16 -6 27 13 42 33 26 20 -17 32 -5 15 15 -15 18 -41
20 -58 3z"/>
<path d="M6569 1183 c-13 -15 -11 -16 13 -10 15 4 30 3 33 -3 3 -5 -3 -10 -13
-10 -11 0 -25 -7 -32 -15 -18 -21 3 -44 41 -43 27 1 29 4 29 38 0 56 -40 81
-71 43z m46 -53 c-3 -5 -10 -10 -16 -10 -5 0 -9 5 -9 10 0 6 7 10 16 10 8 0
12 -4 9 -10z"/>
<path d="M6724 1187 c-9 -24 0 -80 14 -85 8 -2 12 10 12 42 0 45 -15 70 -26
43z"/>
<path d="M6782 1188 c-19 -19 -15 -66 8 -78 34 -18 62 4 58 48 -3 31 -7 37
-28 40 -14 2 -31 -3 -38 -10z m46 -35 c-3 -30 -25 -42 -34 -19 -9 22 2 46 21
46 12 0 15 -8 13 -27z"/>
<path d="M6870 1154 c0 -32 4 -44 15 -44 10 0 15 11 15 35 0 24 5 35 15 35 10
0 15 -11 15 -35 0 -19 5 -35 11 -35 6 0 9 17 7 43 -3 41 -4 42 -40 44 l-38 1
0 -44z"/>
<path d="M7020 1155 c0 -25 5 -45 10 -45 6 0 10 20 10 45 0 25 -4 45 -10 45
-5 0 -10 -20 -10 -45z"/>
<path d="M7062 1158 c4 -53 28 -65 28 -14 0 25 4 36 15 36 10 0 15 -11 15 -35
0 -19 5 -35 11 -35 6 0 9 17 7 43 -3 41 -4 42 -41 44 l-38 2 3 -41z"/>
<path d="M7260 1154 c0 -32 4 -44 15 -44 10 0 15 11 15 35 0 24 5 35 15 35 10
0 15 -11 15 -35 0 -19 5 -35 11 -35 6 0 9 17 7 43 -3 41 -4 42 -40 44 l-38 1
0 -44z"/>
<path d="M7470 1155 c0 -25 5 -45 10 -45 6 0 10 20 10 45 0 25 -4 45 -10 45
-5 0 -10 -20 -10 -45z"/>
<path d="M7514 1189 c-5 -9 0 -10 20 -5 19 5 26 3 26 -8 0 -8 -10 -16 -22 -18
-15 -2 -23 -10 -23 -23 0 -16 8 -21 38 -23 l38 -3 -3 43 c-3 40 -5 43 -35 46
-17 2 -34 -2 -39 -9z m46 -47 c0 -13 -12 -22 -22 -16 -10 6 -1 24 13 24 5 0 9
-4 9 -8z"/>
<path d="M4113 1183 c-7 -2 -13 -20 -13 -38 0 -37 26 -60 54 -49 23 9 20 21
-5 20 -12 -1 -24 5 -26 12 -3 8 6 12 26 12 32 0 41 16 19 38 -12 12 -33 14
-55 5z m37 -23 c0 -5 -7 -10 -15 -10 -8 0 -15 5 -15 10 0 6 7 10 15 10 8 0 15
-4 15 -10z"/>
<path d="M4196 1163 c10 -41 24 -65 36 -61 12 4 41 78 34 86 -9 9 -26 -10 -26
-29 0 -27 -17 -24 -24 6 -4 14 -11 25 -16 25 -6 0 -8 -11 -4 -27z"/>
<path d="M4290 1170 c-24 -44 10 -91 54 -74 20 8 32 52 19 73 -16 26 -60 26
-73 1z m57 -20 c4 -21 -13 -44 -26 -36 -6 4 -11 18 -11 32 0 19 5 25 17 22 10
-2 19 -10 20 -18z"/>
<path d="M4430 1157 c0 -46 18 -67 53 -60 24 5 27 9 27 49 0 53 -18 59 -22 7
-4 -52 -28 -56 -28 -4 0 30 -4 41 -15 41 -10 0 -15 -10 -15 -33z"/>
<path d="M4600 1145 c0 -25 5 -45 10 -45 6 0 10 20 10 45 0 25 -4 45 -10 45
-5 0 -10 -20 -10 -45z"/>
<path d="M4652 1178 c-17 -17 -15 -54 4 -72 22 -23 41 -20 60 9 32 49 -24 103
-64 63z m46 -35 c-4 -33 -24 -41 -33 -14 -8 25 1 41 21 41 11 0 14 -8 12 -27z"/>
<path d="M4740 1161 c0 -65 27 -84 32 -23 4 46 22 45 26 -3 5 -51 22 -43 22
10 l0 45 -40 0 c-38 0 -40 -2 -40 -29z"/>
<path d="M4850 1180 c0 -6 8 -10 18 -8 26 4 27 -16 0 -22 -14 -4 -23 -13 -23
-25 0 -16 8 -21 38 -23 l38 -3 -3 43 c-3 40 -5 43 -35 46 -20 2 -33 -1 -33 -8z
m44 -49 c3 -5 -1 -11 -9 -15 -9 -3 -15 0 -15 9 0 16 16 20 24 6z"/>
<path d="M4940 1145 c0 -33 4 -45 15 -45 10 0 15 11 15 35 0 19 5 35 10 35 6
0 10 5 10 10 0 6 -11 10 -25 10 -23 0 -25 -4 -25 -45z"/>
<path d="M5018 1139 c14 -43 14 -51 2 -59 -17 -10 -7 -25 12 -17 19 7 61 127
45 127 -7 0 -18 -12 -24 -27 l-10 -28 -8 28 c-4 15 -13 27 -20 27 -10 0 -10
-11 3 -51z"/>
<path d="M5260 1125 c0 -51 3 -65 15 -65 8 0 15 9 15 19 0 12 8 21 21 23 29 4
43 29 35 61 -6 24 -11 27 -46 27 l-40 0 0 -65z m58 14 c-1 -13 -7 -23 -13 -22
-13 3 -18 30 -11 50 10 24 29 1 24 -28z"/>
<path d="M4570 940 c0 -20 7 -20 1160 -20 1153 0 1160 0 1160 20 0 20 -7 20
-1160 20 -1153 0 -1160 0 -1160 -20z"/>
</g>
</svg>
